<svg width="14" height="14" viewBox="0 0 14 14" fill="none" xmlns="http://www.w3.org/2000/svg">
<circle cx="7" cy="7" r="7" fill="#1E82C0"/>
<path d="M6.25195 4.09141C6.25195 4.00856 6.31911 3.94141 6.40195 3.94141L7.5971 3.94141C7.67994 3.94141 7.7471 4.00856 7.7471 4.09141L7.7471 5.01471C7.7471 5.09755 7.67994 5.16471 7.5971 5.16471L6.40195 5.16471C6.31911 5.16471 6.25195 5.09755 6.25195 5.01471L6.25195 4.09141ZM6.25195 6.53801C6.25195 6.45516 6.31911 6.38801 6.40195 6.38801L7.5971 6.38801C7.67994 6.38801 7.7471 6.45517 7.7471 6.53801L7.7471 9.90791C7.7471 9.99075 7.67994 10.0579 7.5971 10.0579L6.40195 10.0579C6.31911 10.0579 6.25195 9.99075 6.25195 9.90791L6.25195 6.53801Z" fill="white"/>
</svg>
