<svg width="19" height="20" viewBox="0 0 19 20" fill="none" xmlns="http://www.w3.org/2000/svg">
<path d="M13.791 2.49993C14.0099 2.28106 14.2697 2.10744 14.5557 1.98899C14.8417 1.87054 15.1482 1.80957 15.4577 1.80957C15.7672 1.80957 16.0737 1.87054 16.3597 1.98899C16.6456 2.10744 16.9055 2.28106 17.1243 2.49993C17.3432 2.7188 17.5168 2.97863 17.6353 3.2646C17.7537 3.55057 17.8147 3.85706 17.8147 4.16659C17.8147 4.47612 17.7537 4.78262 17.6353 5.06859C17.5168 5.35455 17.3432 5.61439 17.1243 5.83326L5.87435 17.0833L1.29102 18.3333L2.54102 13.7499L13.791 2.49993Z" stroke="#0150B7" stroke-width="1.66667" stroke-linecap="round" stroke-linejoin="round"/>
</svg>
