<svg width="14" height="17" viewBox="0 0 14 17" fill="none" xmlns="http://www.w3.org/2000/svg">
<path d="M0 1.5C0 1.23478 0.105357 0.98043 0.292893 0.792893C0.48043 0.605357 0.734784 0.5 1 0.5H13C13.2652 0.5 13.5196 0.605357 13.7071 0.792893C13.8946 0.98043 14 1.23478 14 1.5V4.5C14 4.76522 13.8946 5.01957 13.7071 5.20711C13.5196 5.39464 13.2652 5.5 13 5.5C12.7348 5.5 12.4804 5.39464 12.2929 5.20711C12.1054 5.01957 12 4.76522 12 4.5V2.5H8V14.5H9C9.26522 14.5 9.51957 14.6054 9.70711 14.7929C9.89464 14.9804 10 15.2348 10 15.5C10 15.7652 9.89464 16.0196 9.70711 16.2071C9.51957 16.3946 9.26522 16.5 9 16.5H5C4.73478 16.5 4.48043 16.3946 4.29289 16.2071C4.10536 16.0196 4 15.7652 4 15.5C4 15.2348 4.10536 14.9804 4.29289 14.7929C4.48043 14.6054 4.73478 14.5 5 14.5H6V2.5H2V4.5C2 4.76522 1.89464 5.01957 1.70711 5.20711C1.51957 5.39464 1.26522 5.5 1 5.5C0.734784 5.5 0.48043 5.39464 0.292893 5.20711C0.105357 5.01957 0 4.76522 0 4.5V1.5Z" fill="#0150B7"/>
</svg>
