<svg width="18" height="20" viewBox="0 0 18 20" fill="none" xmlns="http://www.w3.org/2000/svg">
<path d="M1.54297 5.00033H3.20964M3.20964 5.00033H16.543M3.20964 5.00033V16.667C3.20964 17.109 3.38523 17.5329 3.69779 17.8455C4.01035 18.1581 4.43427 18.3337 4.8763 18.3337H13.2096C13.6517 18.3337 14.0756 18.1581 14.3881 17.8455C14.7007 17.5329 14.8763 17.109 14.8763 16.667V5.00033H3.20964ZM5.70964 5.00033V3.33366C5.70964 2.89163 5.88523 2.46771 6.19779 2.15515C6.51035 1.84259 6.93427 1.66699 7.3763 1.66699H10.7096C11.1517 1.66699 11.5756 1.84259 11.8881 2.15515C12.2007 2.46771 12.3763 2.89163 12.3763 3.33366V5.00033" stroke="#0150B7" stroke-width="1.66667" stroke-linecap="round" stroke-linejoin="round"/>
</svg>
