<svg width="20" height="21" viewBox="0 0 20 21" fill="none" xmlns="http://www.w3.org/2000/svg">
<path id="Vector" d="M17.1139 16.4861L16.8925 16.7522C16.8911 16.7537 16.8897 16.7552 16.8883 16.7567C16.8636 16.7825 16.8353 16.8122 16.7984 16.8518L16.7959 16.8545C16.6799 16.9804 16.563 17.1017 16.4443 17.2181C16.3998 16.7609 16.3004 16.2458 16.1539 15.757C15.9631 15.1202 15.6564 14.4045 15.1855 13.9399C14.3773 13.1425 13.2875 12.6953 12.1519 12.6947H12.1515H7.86276H7.86238C6.72681 12.6953 5.63701 13.1425 4.82878 13.9399C4.35789 14.4045 4.05124 15.1202 3.8604 15.757C3.71401 16.2455 3.61463 16.7601 3.57009 17.2171C3.45225 17.1014 3.33585 16.9804 3.21979 16.8545L3.21733 16.8518C3.18084 16.8126 3.15332 16.7839 3.12999 16.7595L2.89819 16.4834C1.511 14.8313 0.750503 12.744 0.750004 10.5877L0.750004 10.5872C0.748703 9.10305 1.10516 7.64042 1.78926 6.32301C2.47337 5.00559 3.465 3.87212 4.68033 3.01852C5.89566 2.16492 7.29893 1.61631 8.77141 1.41916C10.2439 1.22201 11.7422 1.38212 13.1397 1.88594C14.5371 2.38975 15.7925 3.22242 16.7996 4.31347C17.8068 5.40451 18.5361 6.72182 18.9258 8.15395C19.3156 9.58607 19.3545 11.0909 19.0391 12.5412C18.7237 13.9915 18.0634 15.3446 17.1139 16.4861ZM2.47444 17.1431L2.4682 17.1486L3.03333 16.6555C3.03315 16.6553 3.03296 16.6551 3.03277 16.6548L2.47444 17.1431ZM12.2106 4.79204C11.5583 4.35655 10.7915 4.12415 10.0072 4.12415C8.95535 4.12415 7.9465 4.54163 7.20257 5.28495C6.45863 6.02828 6.04057 7.03659 6.04057 8.0881C6.04057 8.87223 6.27328 9.6387 6.70922 10.2906C7.14514 10.9425 7.76468 11.4504 8.48941 11.7504C9.21413 12.0503 10.0116 12.1288 10.7809 11.9759C11.5502 11.823 12.257 11.4456 12.8117 10.8912C13.3665 10.3369 13.7444 9.63059 13.8975 8.86154C14.0506 8.09249 13.972 7.29535 13.6717 6.57096C13.3714 5.84657 12.8629 5.22753 12.2106 4.79204Z" stroke="#001C40" stroke-width="1.5"/>
</svg>
