<svg width="12" height="12" viewBox="0 0 12 12" fill="none" xmlns="http://www.w3.org/2000/svg">
<circle cx="6" cy="6" r="6" fill="#001C40"/>
<path d="M5.35913 3.512C5.35913 3.43836 5.41883 3.37866 5.49246 3.37866L6.50735 3.37866C6.58099 3.37866 6.64068 3.43836 6.64068 3.512L6.64068 4.29387C6.64068 4.36751 6.58099 4.42721 6.50735 4.42721L5.49246 4.42721C5.41883 4.42721 5.35913 4.36751 5.35913 4.29387L5.35913 3.512ZM5.35913 5.60908C5.35913 5.53544 5.41883 5.47575 5.49246 5.47575L6.50735 5.47575C6.58099 5.47575 6.64068 5.53544 6.64068 5.60908L6.64068 8.48805C6.64068 8.56168 6.58099 8.62138 6.50735 8.62138L5.49246 8.62138C5.41883 8.62138 5.35913 8.56168 5.35913 8.48805L5.35913 5.60908Z" fill="white"/>
</svg>
