<svg width="49" height="48" viewBox="0 0 49 48" fill="none" xmlns="http://www.w3.org/2000/svg">
<circle cx="24.5" cy="24" r="24" fill="#FCF6E8"/>
<path d="M27.0625 32.9855C27.0625 33.8139 26.3909 34.4855 25.5625 34.4855L23.4363 34.4855C22.6079 34.4855 21.9363 33.8139 21.9363 32.9855L21.9363 31.7913C21.9363 30.9629 22.6079 30.2913 23.4363 30.2913L25.5625 30.2913C26.3909 30.2913 27.0625 30.9629 27.0625 31.7913L27.0625 32.9855ZM27.0625 24.5971C27.0625 25.4256 26.3909 26.0971 25.5625 26.0971L23.4363 26.0971C22.6079 26.0971 21.9363 25.4256 21.9363 24.5971L21.9363 15.0146C21.9363 14.1862 22.6079 13.5146 23.4363 13.5146L25.5625 13.5146C26.3909 13.5146 27.0625 14.1862 27.0625 15.0146L27.0625 24.5971Z" fill="#DEA916"/>
</svg>
