<svg width="48" height="48" viewBox="0 0 49 48" fill="none" xmlns="http://www.w3.org/2000/svg">
<circle cx="24.5" cy="24" r="24" fill="#BF1D26"/>
<path fill-rule="evenodd" clip-rule="evenodd" d="M32.5544 18.6842C33.1277 18.1006 33.1277 17.1652 32.5544 16.5817L31.984 16.0012C31.3962 15.4029 30.432 15.4029 29.8441 16.0012L25.4601 20.4632C24.8722 21.0615 23.908 21.0615 23.3201 20.4632L19.1554 16.2244C18.5676 15.6261 17.6033 15.6261 17.0155 16.2244L16.4452 16.8049C15.8718 17.3884 15.8718 18.3238 16.4452 18.9074L20.684 23.2217C21.2574 23.8052 21.2574 24.7406 20.684 25.3242L16.9817 29.0924C16.4083 29.676 16.4083 30.6114 16.9817 31.1949L17.552 31.7754C18.1399 32.3737 19.1041 32.3737 19.692 31.7754L23.3201 28.0827C23.908 27.4844 24.8722 27.4844 25.4601 28.0827L29.3076 31.9986C29.8954 32.5969 30.8597 32.5969 31.4475 31.9986L32.0178 31.4181C32.5912 30.8346 32.5912 29.8992 32.0178 29.3156L28.0962 25.3242C27.5228 24.7406 27.5228 23.8052 28.0962 23.2217L32.5544 18.6842Z" fill="white"/>
</svg>
