<svg width="48" height="48" viewBox="0 0 49 48" fill="none" xmlns="http://www.w3.org/2000/svg">
<circle cx="24.5" cy="24" r="24" fill="#E9F3F9"/>
<path d="M21.9368 15.0146C21.9368 14.1862 22.6083 13.5146 23.4368 13.5146L25.563 13.5146C26.3914 13.5146 27.063 14.1862 27.063 15.0146L27.063 16.2088C27.063 17.0373 26.3914 17.7088 25.563 17.7088L23.4368 17.7088C22.6083 17.7088 21.9368 17.0372 21.9368 16.2088L21.9368 15.0146ZM21.9368 23.403C21.9368 22.5746 22.6083 21.903 23.4368 21.903L25.563 21.903C26.3914 21.903 27.063 22.5746 27.063 23.403L27.063 32.9855C27.063 33.8139 26.3914 34.4855 25.563 34.4855L23.4368 34.4855C22.6083 34.4855 21.9368 33.8139 21.9368 32.9855L21.9368 23.403Z" fill="#1E82C0"/>
</svg>
