<svg width="20" height="21" viewBox="0 0 20 21" fill="none" xmlns="http://www.w3.org/2000/svg">
<path d="M14.4003 9.83368C14.242 9.83368 14.0836 9.77533 13.9586 9.65033C13.7169 9.40866 13.7169 9.00866 13.9586 8.76699L16.6169 6.10866L13.9586 3.45032C13.7169 3.20866 13.7169 2.80866 13.9586 2.56699C14.2003 2.32533 14.6003 2.32533 14.8419 2.56699L17.942 5.66702C18.0586 5.78369 18.1253 5.94199 18.1253 6.10866C18.1253 6.27533 18.0586 6.43368 17.942 6.55035L14.8419 9.65033C14.7169 9.76699 14.5586 9.83368 14.4003 9.83368Z" fill="#1C242F"/>
<path d="M17.5 6.7334H2.5C2.15833 6.7334 1.875 6.45007 1.875 6.1084C1.875 5.76673 2.15833 5.4834 2.5 5.4834H17.5C17.8417 5.4834 18.125 5.76673 18.125 6.1084C18.125 6.45007 17.8417 6.7334 17.5 6.7334Z" fill="#1C242F"/>
<path d="M5.59998 18.6247C5.44164 18.6247 5.28334 18.5663 5.15834 18.4413L2.05831 15.3413C1.94164 15.2246 1.875 15.0663 1.875 14.8997C1.875 14.733 1.94164 14.5747 2.05831 14.458L5.15834 11.358C5.4 11.1163 5.8 11.1163 6.04167 11.358C6.28333 11.5997 6.28333 11.9997 6.04167 12.2413L3.38333 14.8997L6.04167 17.558C6.28333 17.7996 6.28333 18.1997 6.04167 18.4413C5.925 18.5663 5.76664 18.6247 5.59998 18.6247Z" fill="#1C242F"/>
<path d="M17.5 15.5166H2.5C2.15833 15.5166 1.875 15.2333 1.875 14.8916C1.875 14.5499 2.15833 14.2666 2.5 14.2666H17.5C17.8417 14.2666 18.125 14.5499 18.125 14.8916C18.125 15.2333 17.8417 15.5166 17.5 15.5166Z" fill="#1C242F"/>
</svg>
