<svg width="11" height="12" viewBox="0 0 11 12" fill="none" xmlns="http://www.w3.org/2000/svg">
<path fill-rule="evenodd" clip-rule="evenodd" d="M5.5 0C4.9825 0 4.11775 0.19875 3.304 0.42C2.4715 0.645 1.63225 0.91125 1.13875 1.0725C0.932422 1.14064 0.749497 1.2656 0.610992 1.43303C0.472486 1.60045 0.384019 1.80355 0.355754 2.019C-0.0912459 5.37675 0.946004 7.86525 2.2045 9.5115C2.73819 10.2157 3.37452 10.8359 4.09225 11.3512C4.38175 11.556 4.65025 11.7128 4.87825 11.82C5.08825 11.919 5.314 12 5.5 12C5.686 12 5.911 11.919 6.12175 11.82C6.39662 11.6864 6.65957 11.5296 6.90775 11.3512C7.6255 10.8359 8.26183 10.2157 8.7955 9.5115C10.054 7.86525 11.0913 5.37675 10.6443 2.019C10.616 1.80345 10.5276 1.60023 10.3891 1.43267C10.2506 1.26512 10.0676 1.14002 9.86125 1.07175C9.14486 0.83686 8.4229 0.619297 7.696 0.41925C6.88225 0.1995 6.0175 0 5.5 0ZM5.5 3.75C5.76568 3.7496 6.02293 3.84325 6.22618 4.01435C6.42943 4.18544 6.56557 4.42295 6.61049 4.68481C6.6554 4.94666 6.60619 5.21597 6.47158 5.44502C6.33696 5.67407 6.12563 5.84809 5.875 5.93625L6.16375 7.42875C6.17426 7.48303 6.17263 7.53897 6.15898 7.59255C6.14534 7.64613 6.12001 7.69603 6.08482 7.73868C6.04963 7.78133 6.00544 7.81566 5.95542 7.83923C5.90541 7.8628 5.8508 7.87501 5.7955 7.875H5.2045C5.14928 7.8749 5.09475 7.86261 5.04483 7.83899C4.9949 7.81537 4.95081 7.78102 4.9157 7.73839C4.88059 7.69576 4.85533 7.6459 4.84173 7.59237C4.82812 7.53884 4.82651 7.48297 4.837 7.42875L5.125 5.93625C4.87438 5.84809 4.66304 5.67407 4.52843 5.44502C4.39381 5.21597 4.34461 4.94666 4.38952 4.68481C4.43444 4.42295 4.57058 4.18544 4.77383 4.01435C4.97708 3.84325 5.23432 3.7496 5.5 3.75Z" fill="#ACB3BF"/>
</svg>
