<svg width="260" height="198" viewBox="0 0 260 198" fill="none" xmlns="http://www.w3.org/2000/svg">
<path fill-rule="evenodd" clip-rule="evenodd" d="M19.1882 176.211C39.5685 198.395 118.38 185.652 170.274 185.652C192.661 185.652 267.79 196.872 236.766 119.815C135.044 -132.844 -45.387 105.919 19.1882 176.211Z" fill="#ECEDF0"/>
<path fill-rule="evenodd" clip-rule="evenodd" d="M108.65 177.934C108.739 177.866 108.832 177.792 108.871 177.687C108.995 177.35 108.508 177.126 108.149 177.134C107.628 177.146 106.961 177.497 107.12 177.993C107.212 178.28 107.566 178.413 107.863 178.36C108.159 178.307 108.411 178.117 108.65 177.934ZM110.198 172.028C110.591 172.152 110.979 172.304 111.322 172.533C111.965 172.964 112.403 173.632 112.822 174.282C113.123 174.749 113.429 175.224 113.579 175.758C113.742 176.336 113.713 176.954 113.604 177.545C113.264 179.386 112.128 181.065 110.546 182.066C108.964 183.066 106.959 183.372 105.15 182.89C104.798 182.796 104.444 182.668 104.173 182.424C103.945 182.219 103.792 181.946 103.652 181.674C102.915 180.246 102.418 178.659 102.475 177.053C102.532 175.447 103.192 173.821 104.443 172.812C106.012 171.545 108.273 171.424 110.198 172.028" fill="white"/>
<path fill-rule="evenodd" clip-rule="evenodd" d="M203.739 73.9454C202.778 73.9333 201.875 74.7399 201.78 75.6971C201.741 76.0883 201.907 76.5746 202.297 76.6285C202.588 76.6689 202.844 76.4434 203.041 76.2237C203.455 75.7587 203.812 75.2415 204.099 74.6883C204.195 74.5026 204.28 74.2644 204.153 74.0979C204.061 73.9766 203.892 73.9474 203.739 73.9454ZM203.323 69.6526C204.688 70.1292 205.926 70.9674 206.876 72.0587C207.692 72.9966 208.314 74.2142 208.142 75.4456C208.079 75.8977 207.913 76.3288 207.722 76.7437C207.002 78.3152 205.763 79.8211 204.061 80.1255C203.168 80.2851 202.248 80.0938 201.39 79.8017C200.397 79.4639 199.45 78.9901 198.584 78.3977C198.125 78.0835 197.669 77.7106 197.468 77.1919C197.329 76.8344 197.325 76.4407 197.33 76.0574C197.343 75.1092 197.406 74.1449 197.737 73.2561C198.155 72.1316 198.973 71.2033 199.841 70.3748C200.19 70.0417 200.56 69.7134 201.009 69.5348C201.742 69.2427 202.577 69.3925 203.323 69.6526Z" fill="white"/>
<mask id="path-4-outside-1_170_31435" maskUnits="userSpaceOnUse" x="163.283" y="-2" width="56" height="75" fill="black">
<rect fill="white" x="163.283" y="-2" width="56" height="75"/>
<path fill-rule="evenodd" clip-rule="evenodd" d="M203.741 1.24296C209.392 7.07144 213.853 14.0409 216.773 21.6045C216.974 22.124 217.169 22.701 216.977 23.224C215.504 27.2503 212.661 30.607 209.873 33.8709C208.092 35.9565 206.311 38.0421 204.53 40.1277C202.829 42.1187 201.128 44.1101 199.37 46.051C190.42 55.9334 179.844 64.5748 167.595 69.8917C167.133 70.0923 166.637 70.2924 166.139 70.2122C165.642 70.132 165.175 69.6506 165.305 69.1653C166.82 63.5259 168.344 57.6299 167.129 51.919C166.835 50.5415 166.509 48.8071 167.651 47.9782C176.902 41.2673 183.563 31.6749 189.946 22.2128C191.551 19.8336 193.152 17.4478 194.572 14.9547C197.094 10.5284 199.036 5.77479 200.334 0.852207C200.512 0.176703 201.368 -0.127476 202.046 0.0495494C202.724 0.226575 203.254 0.740636 203.741 1.24296"/>
</mask>
<path fill-rule="evenodd" clip-rule="evenodd" d="M203.741 1.24296C209.392 7.07144 213.853 14.0409 216.773 21.6045C216.974 22.124 217.169 22.701 216.977 23.224C215.504 27.2503 212.661 30.607 209.873 33.8709C208.092 35.9565 206.311 38.0421 204.53 40.1277C202.829 42.1187 201.128 44.1101 199.37 46.051C190.42 55.9334 179.844 64.5748 167.595 69.8917C167.133 70.0923 166.637 70.2924 166.139 70.2122C165.642 70.132 165.175 69.6506 165.305 69.1653C166.82 63.5259 168.344 57.6299 167.129 51.919C166.835 50.5415 166.509 48.8071 167.651 47.9782C176.902 41.2673 183.563 31.6749 189.946 22.2128C191.551 19.8336 193.152 17.4478 194.572 14.9547C197.094 10.5284 199.036 5.77479 200.334 0.852207C200.512 0.176703 201.368 -0.127476 202.046 0.0495494C202.724 0.226575 203.254 0.740636 203.741 1.24296" fill="white"/>
<path d="M216.773 21.6045L214.926 22.3176V22.3176L216.773 21.6045ZM216.977 23.224L215.118 22.5437L216.977 23.224ZM209.873 33.8709L211.379 35.1568V35.1568L209.873 33.8709ZM204.53 40.1277L203.024 38.8418H203.024L204.53 40.1277ZM199.37 46.051L200.838 47.3801V47.3801L199.37 46.051ZM167.595 69.8917L166.807 68.0754H166.807L167.595 69.8917ZM165.305 69.1653L163.393 68.6518V68.6518L165.305 69.1653ZM167.129 51.919L169.065 51.507V51.507L167.129 51.919ZM167.651 47.9782L166.489 46.3755H166.489L167.651 47.9782ZM189.946 22.2128L188.304 21.1055V21.1055L189.946 22.2128ZM194.572 14.9547L196.292 15.9348V15.9348L194.572 14.9547ZM200.334 0.852207L202.248 1.35698L200.334 0.852207ZM202.046 0.0495494L202.546 -1.86622L202.546 -1.86622L202.046 0.0495494ZM203.741 1.24296L202.319 2.62127C207.786 8.25911 212.102 15.0025 214.926 22.3176L216.773 21.6045L218.621 20.8914C215.605 13.0794 210.999 5.88377 205.162 -0.135347L203.741 1.24296ZM216.773 21.6045L214.926 22.3176C214.972 22.4362 215.006 22.5278 215.032 22.6085C215.057 22.6885 215.069 22.7384 215.074 22.7662C215.085 22.8254 215.054 22.7185 215.118 22.5437L216.977 23.224L218.837 23.9043C219.32 22.5835 218.782 21.3105 218.621 20.8914L216.773 21.6045ZM216.977 23.224L215.118 22.5437C213.787 26.1805 211.195 29.2748 208.368 32.585L209.873 33.8709L211.379 35.1568C214.127 31.9393 217.221 28.3202 218.837 23.9043L216.977 23.224ZM209.873 33.8709L208.368 32.585C206.587 34.6706 204.805 36.7562 203.024 38.8418L204.53 40.1277L206.035 41.4136C207.816 39.328 209.598 37.2424 211.379 35.1568L209.873 33.8709ZM204.53 40.1277L203.024 38.8418C201.32 40.8365 199.638 42.8058 197.903 44.7218L199.37 46.051L200.838 47.3801C202.618 45.4143 204.338 43.401 206.035 41.4136L204.53 40.1277ZM199.37 46.051L197.903 44.7218C189.079 54.4644 178.724 62.9026 166.807 68.0754L167.595 69.8917L168.384 71.7079C180.964 66.2469 191.761 57.4024 200.838 47.3801L199.37 46.051ZM167.595 69.8917L166.807 68.0754C166.697 68.1233 166.611 68.1593 166.534 68.1889C166.458 68.2181 166.406 68.2347 166.37 68.2442C166.296 68.2639 166.342 68.2394 166.454 68.2575L166.139 70.2122L165.824 72.167C166.978 72.3528 167.995 71.8764 168.384 71.7079L167.595 69.8917ZM166.139 70.2122L166.454 68.2575C166.691 68.2956 166.866 68.4062 166.995 68.5575C167.131 68.7173 167.365 69.1285 167.218 69.6788L165.305 69.1653L163.393 68.6518C163.115 69.6874 163.518 70.582 163.979 71.1238C164.433 71.6572 165.09 72.0486 165.824 72.167L166.139 70.2122ZM165.305 69.1653L167.218 69.6788C168.711 64.1189 170.395 57.7588 169.065 51.507L167.129 51.919L165.192 52.3311C166.292 57.5009 164.929 62.9328 163.393 68.6518L165.305 69.1653ZM167.129 51.919L169.065 51.507C168.913 50.7909 168.815 50.2422 168.83 49.8112C168.844 49.4111 168.937 49.4913 168.814 49.5809L167.651 47.9782L166.489 46.3755C165.223 47.2941 164.908 48.6559 164.873 49.6746C164.839 50.6624 165.051 51.6696 165.192 52.3311L167.129 51.919ZM167.651 47.9782L168.814 49.5809C178.389 42.6349 185.226 32.7491 191.587 23.3201L189.946 22.2128L188.304 21.1055C181.899 30.6006 175.416 39.8997 166.489 46.3755L167.651 47.9782ZM189.946 22.2128L191.587 23.3201C193.188 20.9472 194.829 18.5023 196.292 15.9348L194.572 14.9547L192.851 13.9746C191.474 16.3932 189.914 18.7199 188.304 21.1055L189.946 22.2128ZM194.572 14.9547L196.292 15.9348C198.899 11.3593 200.906 6.44587 202.248 1.35698L200.334 0.852207L198.419 0.347435C197.165 5.1037 195.288 9.69753 192.851 13.9746L194.572 14.9547ZM200.334 0.852207L202.248 1.35698C202.144 1.75253 201.87 1.91334 201.786 1.94949C201.711 1.98179 201.643 1.99068 201.546 1.96532L202.046 0.0495494L202.546 -1.86622C201.771 -2.06861 200.936 -1.99614 200.219 -1.68713C199.493 -1.37427 198.701 -0.723622 198.419 0.347435L200.334 0.852207ZM202.046 0.0495494L201.546 1.96532C201.551 1.96669 201.616 1.9848 201.76 2.09498C201.912 2.21205 202.079 2.37313 202.319 2.62127L203.741 1.24296L205.162 -0.135347C204.718 -0.593201 203.833 -1.53013 202.546 -1.86622L202.046 0.0495494Z" fill="white" mask="url(#path-4-outside-1_170_31435)"/>
<mask id="path-6-outside-2_170_31435" maskUnits="userSpaceOnUse" x="-0.93457" y="24.0303" width="47" height="66" fill="black">
<rect fill="white" x="-0.93457" y="24.0303" width="47" height="66"/>
<path fill-rule="evenodd" clip-rule="evenodd" d="M19.7061 26.8549C20.625 35.1617 23.1824 43.284 27.1884 50.6188C29.6688 55.1602 32.6858 59.3828 35.6948 63.5927C37.7886 66.5222 40.0277 69.5751 43.2947 71.0891C44.1633 71.4916 44.0421 72.744 43.809 73.6726C42.8013 77.6864 42.3311 81.8347 42.4149 85.9722C42.4229 86.3631 42.4331 86.7683 42.2795 87.1278C41.7582 88.3484 39.9719 88.145 38.7421 87.6458C31.1332 84.557 25.2915 78.3454 19.8344 72.2089C12.7492 64.2416 5.76944 55.9245 1.5839 46.1184C1.29936 45.4518 1.02321 44.7502 1.07081 44.0269C1.11932 43.29 1.49795 42.6201 1.88202 41.9892C5.67633 35.7572 10.9549 30.4356 17.156 26.5909C17.5928 26.3201 18.0592 26.0487 18.5728 26.031C19.0864 26.0132 19.6496 26.3441 19.7061 26.8549Z"/>
</mask>
<path fill-rule="evenodd" clip-rule="evenodd" d="M19.7061 26.8549C20.625 35.1617 23.1824 43.284 27.1884 50.6188C29.6688 55.1602 32.6858 59.3828 35.6948 63.5927C37.7886 66.5222 40.0277 69.5751 43.2947 71.0891C44.1633 71.4916 44.0421 72.744 43.809 73.6726C42.8013 77.6864 42.3311 81.8347 42.4149 85.9722C42.4229 86.3631 42.4331 86.7683 42.2795 87.1278C41.7582 88.3484 39.9719 88.145 38.7421 87.6458C31.1332 84.557 25.2915 78.3454 19.8344 72.2089C12.7492 64.2416 5.76944 55.9245 1.5839 46.1184C1.29936 45.4518 1.02321 44.7502 1.07081 44.0269C1.11932 43.29 1.49795 42.6201 1.88202 41.9892C5.67633 35.7572 10.9549 30.4356 17.156 26.5909C17.5928 26.3201 18.0592 26.0487 18.5728 26.031C19.0864 26.0132 19.6496 26.3441 19.7061 26.8549Z" fill="white"/>
<path d="M27.1884 50.6188L28.9261 49.6698L27.1884 50.6188ZM35.6948 63.5927L34.084 64.744L35.6948 63.5927ZM43.2947 71.0891L42.4622 72.8855L43.2947 71.0891ZM43.809 73.6726L45.7294 74.1547V74.1547L43.809 73.6726ZM42.4149 85.9722L40.4354 86.0123V86.0123L42.4149 85.9722ZM42.2795 87.1278L44.1003 87.9056V87.9056L42.2795 87.1278ZM38.7421 87.6458L37.9974 89.4804V89.4804L38.7421 87.6458ZM19.8344 72.2089L18.3549 73.5247V73.5247L19.8344 72.2089ZM1.5839 46.1184L3.40492 45.3411V45.3411L1.5839 46.1184ZM1.07081 44.0269L3.0465 44.1569V44.1569L1.07081 44.0269ZM1.88202 41.9892L3.5732 43.0189V43.0189L1.88202 41.9892ZM17.156 26.5909L16.1127 24.9081V24.9081L17.156 26.5909ZM18.5728 26.031L18.5043 24.0522H18.5043L18.5728 26.031ZM19.7061 26.8549L17.7382 27.0725C18.6854 35.6358 21.321 44.0066 25.4508 51.5679L27.1884 50.6188L28.9261 49.6698C25.0438 42.5614 22.5646 34.6875 21.6741 26.6372L19.7061 26.8549ZM27.1884 50.6188L25.4508 51.5679C27.998 56.2317 31.0866 60.5504 34.084 64.744L35.6948 63.5927L37.3056 62.4414C34.285 58.2153 31.3397 54.0888 28.9261 49.6698L27.1884 50.6188ZM35.6948 63.5927L34.084 64.744C36.1249 67.5995 38.6446 71.1164 42.4622 72.8855L43.2947 71.0891L44.1272 69.2926C41.4107 68.0338 39.4523 65.4449 37.3056 62.4414L35.6948 63.5927ZM43.2947 71.0891L42.4622 72.8855C42.3816 72.8482 42.2974 72.7932 42.2198 72.7204C42.1432 72.6484 42.0891 72.5739 42.0529 72.5103C41.9856 72.3918 41.9895 72.3283 41.9954 72.3854C42.0008 72.4384 42.0022 72.541 41.9834 72.6974C41.9651 72.8493 41.9321 73.0175 41.8886 73.1904L43.809 73.6726L45.7294 74.1547C45.8667 73.6079 46.0186 72.8003 45.9347 71.9817C45.8489 71.145 45.4523 69.9067 44.1272 69.2926L43.2947 71.0891ZM43.809 73.6726L41.8886 73.1904C40.8381 77.3749 40.348 81.6989 40.4354 86.0123L42.4149 85.9722L44.3945 85.9321C44.3142 81.9706 44.7645 77.9978 45.7294 74.1547L43.809 73.6726ZM42.4149 85.9722L40.4354 86.0123C40.4375 86.1165 40.439 86.1901 40.4388 86.2606C40.4385 86.3282 40.4366 86.3729 40.4342 86.4035C40.429 86.4677 40.4241 86.431 40.4587 86.3501L42.2795 87.1278L44.1003 87.9056C44.4518 87.0829 44.4004 86.2246 44.3945 85.9321L42.4149 85.9722ZM42.2795 87.1278L40.4587 86.3501C40.5106 86.2287 40.6153 86.1204 40.7166 86.064C40.7881 86.0242 40.7896 86.0475 40.6597 86.0552C40.5352 86.0626 40.355 86.0512 40.1312 86.0061C39.9115 85.9619 39.6875 85.8927 39.4868 85.8112L38.7421 87.6458L37.9974 89.4804C38.7895 89.8019 39.8454 90.0702 40.8933 90.0082C41.9557 89.9455 43.4278 89.4799 44.1003 87.9056L42.2795 87.1278ZM38.7421 87.6458L39.4869 85.8112C32.3619 82.9189 26.7976 77.0595 21.314 70.8932L19.8344 72.2089L18.3549 73.5247C23.7854 79.6313 29.9046 86.1951 37.9974 89.4804L38.7421 87.6458ZM19.8344 72.2089L21.314 70.8932C14.2261 62.9229 7.45026 54.8187 3.40492 45.3411L1.5839 46.1184L-0.237118 46.8957C4.08861 57.0302 11.2724 65.5604 18.3549 73.5247L19.8344 72.2089ZM1.5839 46.1184L3.40492 45.3411C3.10389 44.6359 3.03405 44.3461 3.0465 44.1569L1.07081 44.0269L-0.904876 43.8969C-0.987636 45.1543 -0.505182 46.2676 -0.237118 46.8957L1.5839 46.1184ZM1.07081 44.0269L3.0465 44.1569C3.05907 43.966 3.16965 43.6817 3.5732 43.0189L1.88202 41.9892L0.190847 40.9596C-0.173748 41.5584 -0.820436 42.6139 -0.904876 43.8969L1.07081 44.0269ZM1.88202 41.9892L3.5732 43.0189C7.20583 37.0524 12.2625 31.9546 18.1994 28.2737L17.156 26.5909L16.1127 24.9081C9.64737 28.9167 4.14683 34.462 0.190847 40.9596L1.88202 41.9892ZM17.156 26.5909L18.1994 28.2737C18.4152 28.1399 18.5381 28.0702 18.6352 28.0273C18.7225 27.9888 18.7135 28.0072 18.6412 28.0097L18.5728 26.031L18.5043 24.0522C17.391 24.0907 16.4992 24.6685 16.1127 24.9081L17.156 26.5909ZM18.5728 26.031L18.6412 28.0097C18.4757 28.0155 18.331 27.9729 18.1968 27.8815C18.0545 27.7846 17.7883 27.5262 17.7382 27.0726L19.7061 26.8549L21.6741 26.6372C21.5674 25.6728 20.9914 24.9935 20.4249 24.6079C19.8665 24.2278 19.1834 24.0287 18.5043 24.0522L18.5728 26.031Z" fill="white" mask="url(#path-6-outside-2_170_31435)"/>
<path d="M229.532 85.7119C230.554 84.076 232.721 83.6337 234.442 84.0332C236.159 84.4317 237.606 85.5076 238.907 86.4795C244.085 90.3465 249.262 94.214 254.439 98.0811C255.834 99.1223 257.338 100.335 258.474 101.741C259.612 103.152 260.412 104.796 260.324 106.691C260.228 108.767 259.043 110.584 257.995 112.163L245.686 130.712C244.597 132.353 244.189 134.271 243.975 136.34C243.867 137.376 243.811 138.427 243.735 139.5C243.661 140.566 243.568 141.645 243.39 142.7C242.26 149.365 237.693 154.819 233.582 159.939C229.439 165.1 225.412 170.733 225.186 177.15C224.904 185.158 221.101 192.974 214.976 198.139L214.199 197.572C214.385 197.122 214.37 196.829 214.28 196.621C214.185 196.4 213.96 196.169 213.517 195.937C212.612 195.463 211.084 195.13 209.006 194.759C204.908 194.028 198.94 193.187 192.574 190.654L192.159 190.49L192.28 190.061C194.377 182.644 198.332 175.923 202.206 169.359C202.535 168.802 202.926 168.176 203.411 167.661C203.9 167.143 204.513 166.707 205.293 166.578C205.371 166.565 205.461 166.514 205.565 166.37C205.673 166.222 205.764 166.019 205.845 165.792C207.914 159.988 208.113 153.531 206.406 147.61C205.86 145.714 206.54 143.739 207.134 142.082C208.663 137.815 210.192 133.547 211.722 129.28C211.352 128.788 210.75 128.497 209.978 128.183C209.173 127.855 208.153 127.497 207.457 126.739C206.53 125.729 206.448 124.443 206.718 123.23C206.986 122.023 207.617 120.809 208.235 119.818L229.532 85.7119Z" fill="white" stroke="white" stroke-width="0.989981"/>
<path d="M140.473 43.7891C142.099 60.9897 138.643 78.1828 135.118 94.918C143.864 94.0659 152.611 93.2144 161.356 92.3623C170.549 91.4667 179.742 90.5704 188.936 89.6748C189.399 89.6297 190.352 89.518 191.133 90.0518C191.68 90.4255 191.948 90.9658 192.085 91.4375C192.22 91.9003 192.253 92.3824 192.271 92.7461C193.131 110.936 193.652 129.142 193.834 147.351C193.836 147.581 193.837 147.91 193.772 148.242C193.707 148.583 193.561 148.998 193.217 149.346C192.658 149.91 191.868 149.975 191.544 150.011C165.784 152.881 140.024 155.752 114.264 158.623C113.045 158.759 111.528 158.678 110.287 158.213C109.662 157.979 109.045 157.624 108.587 157.09C108.11 156.533 107.848 155.824 107.896 155.001C108.457 145.318 108.151 135.584 106.989 125.955C100.546 125.814 94.078 126.842 87.9951 128.982C87.377 129.2 86.7226 129.597 86.333 130.026C86.1416 130.238 86.0579 130.408 86.0312 130.521C86.0112 130.607 86.0148 130.684 86.0801 130.795C87.4899 133.191 88.0886 135.854 88.334 138.556C88.5781 141.243 88.4766 144.052 88.4365 146.713C88.3544 152.156 88.5528 156.944 91.79 160.345C93.2086 161.835 93.8328 163.718 94.0508 165.621C94.2679 167.517 94.0902 169.506 93.8447 171.289C92.7977 178.896 91.0186 186.401 88.541 193.666L86.624 193.206C86.7369 192.418 86.5493 191.935 86.2314 191.584C85.8739 191.19 85.2466 190.848 84.2871 190.601C82.3589 190.103 79.5933 190.102 76.6113 190.234C73.7073 190.363 70.5919 190.62 68.2158 190.56C67.0281 190.529 65.9166 190.421 65.0508 190.135C64.2993 189.886 63.5106 189.42 63.2109 188.558C62.3098 187.644 62.0637 186.342 61.9375 185.425C61.1051 179.373 62.4805 173.391 63.8447 167.609C65.2244 161.762 66.5919 156.117 65.998 150.451C65.3887 144.637 62.7087 139.158 59.2676 134.274C56.6258 130.525 56.5335 125.606 57.4619 121.38C57.9271 119.263 58.6253 117.228 59.3477 115.249C60.0765 113.252 60.8216 111.333 61.4238 109.36C66.7579 91.8899 60.2838 73.1491 53.709 55.6299L53.3916 54.7842L54.2051 54.3906C67.5439 47.9404 83.0738 49.2058 97.4609 50.0566C111.953 50.9137 127.188 50.9319 138.937 43.0596L140.316 42.1348L140.473 43.7891Z" fill="white" stroke="white" stroke-width="1.97996"/>
<path fill-rule="evenodd" clip-rule="evenodd" d="M110.639 171.409C111.077 171.546 111.511 171.716 111.893 171.972C112.61 172.452 113.098 173.198 113.566 173.923C113.902 174.443 114.243 174.973 114.41 175.569C114.592 176.214 114.559 176.903 114.438 177.562C114.059 179.616 112.792 181.489 111.027 182.605C109.262 183.721 107.026 184.063 105.009 183.524C104.616 183.419 104.22 183.277 103.918 183.005C103.665 182.776 103.493 182.472 103.337 182.168C102.515 180.575 101.961 178.805 102.024 177.013C102.088 175.222 102.824 173.409 104.219 172.283C105.97 170.87 108.492 170.735 110.639 171.409M108.178 182.077C109.275 181.91 110.241 181.193 110.872 180.28C111.503 179.367 111.826 178.271 111.982 177.172C112.07 176.545 112.078 175.826 111.635 175.372C111.37 175.101 110.991 174.98 110.628 174.871C109.264 174.463 107.706 174.116 106.484 174.847C105.594 175.38 105.098 176.366 104.648 177.301C104.122 178.395 104.252 179.776 104.974 180.753C105.695 181.729 106.977 182.259 108.178 182.077V182.077Z" fill="#8690A1"/>
<path fill-rule="evenodd" clip-rule="evenodd" d="M163.33 115.978C163.349 115.675 163.377 115.35 163.532 115.121C163.682 114.897 163.919 114.817 164.142 114.749C169.875 113.01 175.796 112.33 181.674 112.735C182.422 112.786 183.385 113.116 183.435 114.091C183.718 119.679 184.002 125.267 184.286 130.855C184.301 131.138 184.308 131.451 184.169 131.669C184.056 131.847 183.873 131.916 183.702 131.974C177.588 134.051 171.144 134.46 164.905 133.168C164.744 133.135 164.575 133.096 164.45 132.96C164.299 132.795 164.247 132.527 164.204 132.277C163.284 126.943 162.988 121.427 163.33 115.978ZM164.683 125.247C164.795 127.358 165.135 129.447 165.689 131.435C166.241 131.539 166.788 131.689 167.338 131.81C172.08 132.856 176.929 131.804 181.67 130.752C182.007 130.678 182.376 130.579 182.583 130.226C182.795 129.865 182.767 129.363 182.729 128.912C182.566 126.986 182.402 125.061 182.239 123.135C182.226 122.98 182.209 122.814 182.128 122.698C182.03 122.558 181.87 122.535 181.725 122.523C178.356 122.234 174.976 122.561 171.609 122.889C169.747 123.07 167.886 123.251 166.025 123.432C165.588 123.474 165.091 123.559 164.839 124.027C164.654 124.372 164.66 124.827 164.683 125.247ZM164.735 117.195C164.441 118.426 164.388 119.753 164.583 121.017C164.618 121.244 164.667 121.484 164.8 121.639C164.996 121.868 165.295 121.83 165.556 121.78C168.726 121.175 171.931 120.874 175.136 120.881C175.588 120.882 175.727 120.089 175.722 119.5C175.715 118.637 175.707 117.774 175.7 116.911C175.696 116.412 175.677 115.862 175.414 115.498C175.099 115.06 174.572 115.074 174.113 115.119C173.051 115.225 171.99 115.331 170.928 115.436C170.42 115.487 169.073 115.936 168.454 115.99C167.376 116.214 166.298 116.438 165.22 116.662C165.106 116.686 164.984 116.713 164.896 116.812C164.81 116.908 164.769 117.054 164.735 117.195ZM178.95 120.95C179.792 120.964 180.636 120.854 181.46 120.623C181.656 120.568 181.862 120.498 182.002 120.311C182.207 120.036 182.205 119.604 182.19 119.221C182.147 118.108 182.103 116.995 182.06 115.883C182.044 115.486 182.01 115.039 181.772 114.79C181.562 114.572 181.267 114.585 180.999 114.608C180.062 114.691 179.125 114.775 178.188 114.858C178.04 114.871 177.884 114.887 177.76 114.994C177.533 115.189 177.499 115.599 177.493 115.953C177.472 117.132 177.509 118.314 177.604 119.487C177.631 119.827 177.669 120.184 177.83 120.454C178.081 120.873 178.542 120.943 178.95 120.95Z" fill="#ECEDF0"/>
<path fill-rule="evenodd" clip-rule="evenodd" d="M193.361 40.7141C192.734 41.6541 192.055 42.6064 191.086 43.1868C190.117 43.7672 188.78 43.8803 187.909 43.1607C186.948 42.3669 186.889 40.9357 186.965 39.6918C186.994 39.2129 187.033 38.7302 187.17 38.2704C187.408 37.473 187.927 36.7926 188.47 36.1616C189.128 35.3961 189.857 34.6577 190.77 34.2269C191.683 33.7961 192.818 33.7205 193.673 34.2564C194.697 34.898 195.076 36.2627 194.882 37.4554C194.688 38.6481 194.031 39.7084 193.361 40.7141M191.371 41.7077C192.16 40.8666 192.838 39.92 193.379 38.9012C193.735 38.2307 194.038 37.5019 194.024 36.7428C194.01 35.9837 193.609 35.1902 192.904 34.9085C191.986 34.5416 190.978 35.1285 190.21 35.7521C189.664 36.1961 189.135 36.6831 188.785 37.2936C188.563 37.6797 188.419 38.1045 188.276 38.5262C188.006 39.3239 187.733 40.1551 187.835 40.991C187.938 41.8268 188.536 42.666 189.374 42.7526C190.149 42.8327 190.837 42.2759 191.371 41.7077Z" fill="#ECEDF0"/>
<path d="M191.086 43.1868L191.215 43.4013V43.4013L191.086 43.1868ZM187.909 43.1607L187.75 43.3534V43.3534L187.909 43.1607ZM186.965 39.6918L186.715 39.6766V39.6766L186.965 39.6918ZM187.17 38.2704L186.93 38.1989L187.17 38.2704ZM188.47 36.1616L188.66 36.3246V36.3246L188.47 36.1616ZM190.77 34.2269L190.663 34.0008V34.0008L190.77 34.2269ZM193.673 34.2564L193.806 34.0446V34.0446L193.673 34.2564ZM194.882 37.4554L195.129 37.4955V37.4955L194.882 37.4554ZM191.371 41.7077L191.188 41.5366V41.5366L191.371 41.7077ZM193.379 38.9012L193.158 38.7839V38.7839L193.379 38.9012ZM192.904 34.9085L192.997 34.6764V34.6764L192.904 34.9085ZM190.21 35.7521L190.053 35.5581V35.5581L190.21 35.7521ZM188.785 37.2936L189.001 37.4181V37.4181L188.785 37.2936ZM188.276 38.5262L188.513 38.6063V38.6063L188.276 38.5262ZM187.835 40.991L188.084 40.9605V40.9605L187.835 40.991ZM189.374 42.7526L189.348 43.0012V43.0012L189.374 42.7526ZM193.361 40.7141L193.153 40.5755C192.524 41.5185 191.873 42.4244 190.958 42.9723L191.086 43.1868L191.215 43.4013C192.238 42.7884 192.944 41.7898 193.569 40.8527L193.361 40.7141ZM191.086 43.1868L190.958 42.9723C190.044 43.5195 188.829 43.5972 188.068 42.968L187.909 43.1607L187.75 43.3534C188.73 44.1634 190.19 44.0149 191.215 43.4013L191.086 43.1868ZM187.909 43.1607L188.068 42.968C187.646 42.6192 187.411 42.1228 187.293 41.5449C187.174 40.965 187.177 40.3224 187.214 39.7071L186.965 39.6918L186.715 39.6766C186.677 40.3051 186.671 41 186.803 41.6452C186.936 42.2923 187.211 42.9084 187.75 43.3534L187.909 43.1607ZM186.965 39.6918L187.214 39.7071C187.244 39.2276 187.281 38.7711 187.409 38.3419L187.17 38.2704L186.93 38.1989C186.784 38.6893 186.745 39.1982 186.715 39.6766L186.965 39.6918ZM187.17 38.2704L187.409 38.3419C187.631 37.599 188.119 36.9527 188.66 36.3246L188.47 36.1616L188.28 35.9986C187.735 36.6324 187.184 37.3471 186.93 38.1989L187.17 38.2704ZM188.47 36.1616L188.66 36.3246C189.314 35.5639 190.014 34.8601 190.877 34.453L190.77 34.2269L190.663 34.0008C189.7 34.4553 188.943 35.2283 188.28 35.9986L188.47 36.1616ZM190.77 34.2269L190.877 34.453C191.739 34.0463 192.778 33.9909 193.54 34.4683L193.673 34.2564L193.806 34.0446C192.857 33.45 191.628 33.5459 190.663 34.0008L190.77 34.2269ZM193.673 34.2564L193.54 34.4683C194.451 35.0386 194.819 36.2839 194.635 37.4153L194.882 37.4554L195.129 37.4955C195.333 36.2415 194.944 34.7574 193.806 34.0446L193.673 34.2564ZM194.882 37.4554L194.635 37.4153C194.451 38.5483 193.824 39.5676 193.153 40.5755L193.361 40.7141L193.569 40.8527C194.237 39.8493 194.925 38.7479 195.129 37.4955L194.882 37.4554ZM191.371 41.7077L191.553 41.8788C192.358 41.0215 193.048 40.0569 193.6 39.0184L193.379 38.9012L193.158 38.7839C192.627 39.7832 191.963 40.7116 191.188 41.5366L191.371 41.7077ZM193.379 38.9012L193.6 39.0184C193.96 38.3395 194.289 37.5635 194.274 36.7381L194.024 36.7428L193.774 36.7475C193.787 37.4402 193.51 38.1218 193.158 38.7839L193.379 38.9012ZM194.024 36.7428L194.274 36.7381C194.258 35.9125 193.823 35.0066 192.997 34.6764L192.904 34.9085L192.811 35.1407C193.395 35.3739 193.761 36.0549 193.774 36.7475L194.024 36.7428ZM192.904 34.9085L192.997 34.6764C192.46 34.462 191.91 34.5327 191.411 34.7257C190.913 34.918 190.446 35.2389 190.053 35.5581L190.21 35.7521L190.368 35.9462C190.743 35.6418 191.163 35.3574 191.591 35.1921C192.017 35.0275 192.43 34.9882 192.811 35.1407L192.904 34.9085ZM190.21 35.7521L190.053 35.5581C189.502 36.0059 188.942 36.5168 188.568 37.1692L188.785 37.2936L189.001 37.4181C189.328 36.8494 189.826 36.3863 190.368 35.9462L190.21 35.7521ZM188.785 37.2936L188.568 37.1692C188.332 37.58 188.181 38.0283 188.039 38.4461L188.276 38.5262L188.513 38.6063C188.657 38.1807 188.794 37.7795 189.001 37.4181L188.785 37.2936ZM188.276 38.5262L188.039 38.4461C187.773 39.2345 187.477 40.1199 187.587 41.0215L187.835 40.991L188.084 40.9605C187.989 40.1904 188.24 39.4133 188.513 38.6063L188.276 38.5262ZM187.835 40.991L187.587 41.0215C187.698 41.9247 188.352 42.8983 189.348 43.0012L189.374 42.7526L189.4 42.5039C188.72 42.4336 188.178 41.729 188.084 40.9605L187.835 40.991ZM189.374 42.7526L189.348 43.0012C189.806 43.0485 190.225 42.9061 190.591 42.688C190.955 42.4706 191.279 42.1703 191.553 41.8788L191.371 41.7077L191.188 41.5366C190.929 41.8132 190.642 42.0755 190.335 42.2586C190.029 42.4408 189.718 42.5368 189.4 42.5039L189.374 42.7526Z" fill="#ECEDF0"/>
<path fill-rule="evenodd" clip-rule="evenodd" d="M24.2548 54.3086C25.2358 55.3023 26.0457 56.4647 26.6381 57.7292C27.2335 59.0001 26.6332 60.6335 25.4648 61.411C24.2963 62.1885 22.7166 62.1783 21.4354 61.6053C20.1542 61.0323 19.1475 59.9629 18.406 58.7713C17.8469 57.873 17.4135 56.8662 17.367 55.8091C17.3205 54.7521 17.7097 53.6396 18.5459 52.9914C19.3917 52.3357 20.581 52.2421 21.6039 52.5567C22.6267 52.8713 23.5029 53.547 24.2548 54.3086ZM20.4259 53.7042C19.577 53.6168 18.8229 54.3959 18.6773 55.2368C18.5317 56.0776 18.8522 56.9308 19.267 57.6766C20.1664 59.2938 21.7712 60.7303 23.6195 60.6409C24.5697 60.5949 25.6111 59.9367 25.5943 58.9856C25.587 58.5743 25.3841 58.1948 25.1814 57.8368C24.6431 56.8859 24.0616 55.9446 23.285 55.1758C22.5085 54.4069 21.5129 53.8161 20.4259 53.7042Z" fill="#ECEDF0"/>
<path fill-rule="evenodd" clip-rule="evenodd" d="M106.215 176.443C106.897 175.926 107.744 175.59 108.598 175.646C109.452 175.701 110.298 176.191 110.655 176.968C111.038 177.803 110.799 178.84 110.201 179.537C109.603 180.234 108.702 180.619 107.792 180.746C107.171 180.833 106.431 180.755 106.091 180.228C105.927 179.974 105.89 179.661 105.857 179.36C105.798 178.821 105.738 178.281 105.679 177.741C105.654 177.512 105.63 177.275 105.703 177.057C105.79 176.801 106 176.607 106.215 176.443M108.913 177.996C109.012 177.92 109.115 177.837 109.159 177.72C109.297 177.344 108.754 177.095 108.354 177.104C107.773 177.117 107.028 177.508 107.206 178.061C107.309 178.382 107.703 178.53 108.034 178.471C108.365 178.412 108.646 178.201 108.913 177.996H108.913Z" fill="#8690A1"/>
<path fill-rule="evenodd" clip-rule="evenodd" d="M220.25 45.7024C221.41 44.2415 223.524 44.0313 225.389 44.0768C225.825 44.0874 226.273 44.1085 226.67 44.2893C227.773 44.7921 228.007 46.2338 228.045 47.4457C228.079 48.5484 228.072 49.6655 227.804 50.7357C227.536 51.8059 226.982 52.8369 226.096 53.4937C225.697 53.7889 225.235 54.004 224.746 54.0859C223.99 54.2125 223.217 54.0183 222.499 53.7511C221.541 53.3949 220.634 52.9058 219.81 52.3021C219.407 52.0072 218.992 51.6212 218.979 51.1224C218.949 49.9723 219.078 48.8181 219.36 47.7028C219.541 46.9901 219.792 46.2782 220.25 45.7024ZM223.257 52.9791C224.747 53.4067 226.331 52.2544 226.895 50.8113C227.46 49.3682 227.251 47.7473 226.941 46.2291C226.821 45.6462 226.199 45.3207 225.624 45.1648C224.736 44.9236 223.791 44.8916 222.887 45.0722C222.439 45.1619 221.98 45.3156 221.665 45.6477C221.494 45.8286 221.375 46.0521 221.258 46.2725C220.968 46.8222 220.677 47.3719 220.386 47.9216C220.232 48.2116 220.078 48.5043 219.988 48.8198C219.718 49.7633 220.074 50.8111 220.733 51.5385C221.392 52.2658 222.314 52.7083 223.257 52.9791Z" fill="#8690A1"/>
<path fill-rule="evenodd" clip-rule="evenodd" d="M203.323 69.6526C204.688 70.1292 205.926 70.9674 206.876 72.0587C207.692 72.9966 208.314 74.2142 208.142 75.4456C208.079 75.8977 207.913 76.3288 207.722 76.7437C207.002 78.3152 205.763 79.8211 204.061 80.1255C203.168 80.2851 202.248 80.0938 201.39 79.8017C200.397 79.4639 199.45 78.9901 198.584 78.3977C198.125 78.0835 197.669 77.7106 197.468 77.1919C197.329 76.8344 197.325 76.4407 197.33 76.0574C197.343 75.1092 197.406 74.1449 197.737 73.2561C198.155 72.1316 198.973 71.2033 199.841 70.3748C200.19 70.0417 200.56 69.7134 201.009 69.5348C201.742 69.2427 202.577 69.3925 203.323 69.6526ZM204.718 77.9185C205.705 76.9419 206.279 75.526 206.123 74.1462C205.967 72.7665 205.033 71.4717 203.727 71.0007C203.184 70.8049 202.582 70.7503 202.026 70.9041C201.726 70.9872 201.444 71.1285 201.182 71.2955C200.057 72.0106 199.268 73.2304 199.076 74.549C198.885 75.8675 199.294 77.2616 200.168 78.2671C200.728 78.911 201.642 79.1871 202.488 79.0801C203.335 78.9732 204.111 78.5187 204.718 77.9185Z" fill="#8690A1"/>
<path fill-rule="evenodd" clip-rule="evenodd" d="M78.4976 60.7172C79.1495 60.6981 80.0193 60.8686 80.0652 61.5191C76.6206 62.0097 73.176 62.5003 69.7314 62.9908C69.1746 63.0702 68.5504 63.1333 68.1023 62.7933C67.6542 62.4532 67.6993 61.553 68.2577 61.4855C71.657 61.0743 75.075 60.8178 78.4976 60.7172Z" fill="#8690A1"/>
<path fill-rule="evenodd" clip-rule="evenodd" d="M69.1237 65.9189C69.1532 65.5838 69.5742 65.4626 69.9084 65.4247C76.628 64.6638 83.3477 63.9028 90.0673 63.1418C90.4318 63.1006 90.8203 63.0632 91.1483 63.2274C91.4764 63.3916 91.6879 63.8407 91.4737 64.1386C91.3157 64.3581 91.0128 64.4027 90.7436 64.4289C83.8707 65.0958 76.9978 65.7628 70.1248 66.4297C69.6961 66.4713 69.0861 66.348 69.1237 65.9189H69.1237Z" fill="#8690A1"/>
<path fill-rule="evenodd" clip-rule="evenodd" d="M110.951 68.7523C112.033 69.1566 113.19 69.5636 114.318 69.3157C116.835 68.7627 117.586 65.5405 119.498 63.8134C119.961 63.3955 120.625 63.052 121.188 63.3185C121.746 63.5822 121.903 64.2879 121.993 64.8984C122.582 68.9034 123.17 72.9084 123.759 76.9134C123.781 77.0651 123.801 77.2308 123.722 77.3623C123.617 77.5362 123.388 77.5778 123.186 77.6015C119.017 78.0926 114.824 78.3754 110.627 78.4485C108.21 78.4906 105.792 78.4633 103.377 78.5469C92.618 78.9191 82.0644 81.4811 71.371 82.7207C70.5989 82.8102 69.6879 82.8407 69.1917 82.2425C68.4396 81.3358 69.3291 80.0215 70.1741 79.2008C72.2686 77.1667 74.3631 75.1326 76.4575 73.0985C77.4319 72.1523 78.6148 71.133 79.9595 71.3238C81.0688 71.4811 81.873 72.4125 82.7412 73.1206C83.6095 73.8287 84.9343 74.3317 85.7953 73.6147C89.1471 70.8236 92.6571 68.2223 96.3026 65.8275C97.5623 64.9999 99.0993 64.1663 100.5 64.723C103.97 66.102 107.454 67.4452 110.951 68.7523ZM97.4181 67.1903C93.3458 69.8838 89.4134 72.7889 85.642 75.8898C84.8736 76.5216 83.6965 76.0753 82.9364 75.4335C82.1763 74.7918 81.5052 73.9438 80.5359 73.7199C79.1767 73.4059 77.9109 74.4411 76.8985 75.4009C75.0546 77.1489 73.1977 78.9118 71.7324 80.9874C75.1609 80.9759 78.5413 80.2552 81.9122 79.6295C94.412 77.3092 107.148 76.2611 119.859 76.5065C120.636 76.5215 121.289 75.8449 121.511 75.1001C121.734 74.3552 121.624 73.5569 121.513 72.7875C121.273 71.1173 121.032 69.4471 120.791 67.7769C120.734 67.3812 120.663 66.9577 120.386 66.6699C120.109 66.3821 119.548 66.3418 119.355 66.6921C118.365 68.4931 117.189 70.4501 115.222 71.047C113.531 71.5604 111.728 70.9117 110.08 70.2713C106.788 68.9922 103.497 67.7132 100.205 66.4341C99.2708 66.071 98.2543 66.6372 97.4181 67.1903Z" fill="#8690A1"/>
<path fill-rule="evenodd" clip-rule="evenodd" d="M248.712 110.843C248.375 110.969 247.999 110.883 247.656 110.775C245.016 109.945 242.94 107.951 240.835 106.156C237.761 103.533 234.425 101.219 230.893 99.257C230.534 99.0574 230.157 98.8474 229.937 98.5002C229.717 98.153 229.723 97.6245 230.063 97.3927C231.647 96.3113 232.674 94.4556 232.749 92.5392C232.769 92.0285 233.347 91.688 233.856 91.7289C234.365 91.7698 234.81 92.076 235.226 92.3718C240.606 96.1908 245.986 100.01 251.366 103.829C251.681 104.052 252.019 104.31 252.096 104.688C252.159 104.996 252.03 105.308 251.9 105.594C251.204 107.13 250.403 108.619 249.505 110.046C249.302 110.37 249.07 110.71 248.712 110.843ZM232.565 97.2508C232.375 97.5854 232.211 98.0694 232.518 98.3008C236.908 101.606 241.299 104.912 245.689 108.218C246.41 108.761 247.531 109.27 248.099 108.568C248.751 107.762 249.36 106.921 249.923 106.05C250.077 105.812 250.234 105.54 250.178 105.262C250.128 105.008 249.914 104.823 249.713 104.66C244.879 100.741 239.762 97.1722 234.413 93.9912C233.797 95.0777 233.181 96.1643 232.565 97.2508H232.565Z" fill="#8690A1"/>
<path fill-rule="evenodd" clip-rule="evenodd" d="M18.8048 25.0551C19.7236 33.3619 22.281 41.4842 26.2871 48.819C28.7675 53.3604 31.7845 57.583 34.7934 61.7929C36.8872 64.7224 39.1263 67.7753 42.3933 69.2893C43.262 69.6918 43.1408 70.9442 42.9076 71.8728C41.8999 75.8866 41.4297 80.0349 41.5136 84.1724C41.5215 84.5633 41.5318 84.9685 41.3782 85.328C40.8568 86.5486 39.0705 86.3452 37.8407 85.846C30.2319 82.7572 24.3901 76.5456 18.933 70.4091C11.8478 62.4418 4.86807 54.1247 0.682533 44.3186C0.397989 43.6519 0.121841 42.9504 0.169445 42.2271C0.21795 41.4901 0.596584 40.8203 0.980655 40.1894C4.77496 33.9574 10.0536 28.6358 16.2547 24.7911C16.6914 24.5203 17.1578 24.2489 17.6714 24.2312C18.185 24.2134 18.7483 24.5443 18.8048 25.0551ZM32.0848 80.4407C32.4606 80.716 32.91 80.9998 33.3601 80.8798C35.2726 80.3696 37.1852 79.8595 39.0977 79.3493C39.298 79.2959 39.5064 79.2382 39.6606 79.0996C39.8682 78.9131 39.9356 78.6203 39.9921 78.347C40.2686 77.0113 40.4588 75.3941 39.4343 74.4937C37.1582 72.4933 38.293 68.4464 36.3514 66.12C29.2876 57.6562 23.2641 48.1431 20.0558 37.596C19.7979 36.7479 19.3074 35.7062 18.4231 35.7681C16.1006 35.9308 14.4074 33.6966 13.1754 31.721C12.8635 31.2208 12.4157 30.6531 11.832 30.7356C11.6108 30.7668 11.4155 30.8919 11.2309 31.0178C9.32482 32.3181 7.71357 34.048 6.55171 36.0416C6.28081 36.5064 6.02784 37.0624 6.22216 37.564C7.09641 39.8212 7.06392 42.3129 7.01941 44.733C6.98517 46.5949 6.78575 48.7683 5.21509 49.7686C8.3168 53.7539 11.4185 57.7393 14.5202 61.7246C19.7931 68.4995 25.1597 75.3668 32.0848 80.4407ZM13.7299 30.0046C14.575 31.3037 15.6723 32.438 16.9427 33.3256C17.2327 33.5282 17.5561 33.7254 17.9097 33.7153C18.2634 33.7053 18.6273 33.3928 18.5579 33.0459C18.1668 31.0898 17.7757 29.1337 17.3845 27.1776C17.3465 26.9872 17.3005 26.7826 17.1546 26.6545C16.907 26.437 16.5221 26.5513 16.224 26.6919C15.4099 27.0759 14.6518 27.5785 13.9811 28.1787C13.7095 28.4218 13.4365 28.7122 13.4016 29.075C13.3695 29.4087 13.5471 29.7236 13.7299 30.0046ZM4.39418 47.7495C5.2214 47.0183 5.30573 45.7795 5.3306 44.6757C5.34343 44.1059 5.35627 43.5362 5.36911 42.9664C5.39823 41.6736 5.42491 40.3595 5.08548 39.1118C5.06361 39.0314 5.03796 38.9475 4.97799 38.8897C4.82879 38.7458 4.58087 38.8448 4.41182 38.9648C3.16259 39.8509 2.65026 41.5063 2.74411 43.035C2.83797 44.5638 3.44224 46.0086 4.03825 47.4195C4.10609 47.5801 4.22106 47.7701 4.39418 47.7495ZM39.2696 82.1083C39.2642 81.8492 39.2428 81.5555 39.0422 81.3914C38.8502 81.2342 38.5716 81.2608 38.327 81.3027C37.5359 81.4381 36.7572 81.6464 36.0041 81.9241C35.8867 81.9674 35.7606 82.0201 35.7 82.1296C35.5776 82.3503 35.7971 82.5999 35.9969 82.754C37.0504 83.567 38.1654 84.3003 39.3293 84.9455C39.3094 83.9998 39.2895 83.0541 39.2696 82.1083ZM39.174 69.8451C39.0979 69.9486 39.0979 70.0883 39.1085 70.2164C39.1798 71.0723 39.5999 71.8941 40.252 72.4531C40.5377 71.6877 40.4396 70.7896 39.9956 70.1039C39.8112 69.8192 39.375 69.5719 39.174 69.8451H39.174Z" fill="#8690A1"/>
<path fill-rule="evenodd" clip-rule="evenodd" d="M226.008 103.314C226.221 102.95 226.479 102.55 226.892 102.461C227.208 102.392 227.529 102.527 227.819 102.669C229.405 103.439 230.858 104.483 232.094 105.74C232.391 106.043 232.428 106.53 232.295 106.933C232.163 107.336 231.89 107.675 231.623 108.005C231.193 108.534 230.735 109.085 230.101 109.336C229.417 109.607 228.621 109.476 227.973 109.127C227.325 108.778 226.805 108.232 226.347 107.657C225.749 106.906 225.214 106.005 225.306 105.049C225.367 104.423 225.692 103.858 226.008 103.314ZM228.785 107.52C229.782 107.907 230.42 107.6 230.447 106.946C230.463 106.533 230.103 106.215 229.775 105.963C229.445 105.709 229.115 105.455 228.785 105.201C228.457 104.95 228.096 104.686 227.683 104.688C227.27 104.691 226.85 105.117 227.019 105.494C226.993 105.676 227.787 107.132 228.785 107.52Z" fill="#8690A1"/>
<path fill-rule="evenodd" clip-rule="evenodd" d="M225.625 115.84C225.348 115.835 225.09 115.704 224.847 115.571C223.492 114.829 222.238 113.906 221.127 112.833C220.881 112.594 220.643 112.173 220.906 111.954C221.787 111.221 222.737 110.361 222.823 109.219C222.866 108.651 223.602 108.371 224.143 108.547C224.684 108.724 225.074 109.182 225.484 109.577C225.893 109.972 226.417 110.341 226.981 110.264C227.696 110.165 228.294 110.935 228.282 111.657C228.27 112.378 227.838 113.02 227.39 113.587C226.943 114.153 226.448 114.72 226.271 115.42C226.203 115.689 225.902 115.846 225.625 115.84ZM223.289 112.221C223.868 112.612 224.446 113.004 225.024 113.395C225.13 113.467 225.249 113.542 225.377 113.525C225.496 113.51 225.589 113.417 225.673 113.33C225.916 113.075 226.166 112.81 226.288 112.48C226.411 112.149 226.374 111.733 226.106 111.504C225.701 111.158 225.284 110.806 224.783 110.626C224.281 110.446 223.67 110.474 223.277 110.833C222.884 111.192 222.848 111.923 223.289 112.221Z" fill="#8690A1"/>
<path fill-rule="evenodd" clip-rule="evenodd" d="M202.746 3.87335C208.055 9.36993 212.246 15.9426 214.99 23.0754C215.178 23.5653 215.361 24.1095 215.181 24.6027C213.797 28.3997 211.126 31.5653 208.507 34.6433C206.834 36.6102 205.16 38.577 203.487 40.5438C201.889 42.4215 200.291 44.2994 198.64 46.1298C190.231 55.4495 180.295 63.5987 168.787 68.6129C168.353 68.8021 167.887 68.9908 167.42 68.9152C166.952 68.8395 166.514 68.3855 166.636 67.9279C168.059 62.6096 169.491 57.0493 168.349 51.6637C168.074 50.3646 167.767 48.729 168.84 47.9473C177.531 41.6185 183.788 32.5724 189.785 23.6491C191.293 21.4053 192.797 19.1554 194.131 16.8043C196.501 12.63 198.325 8.14711 199.544 3.50485C199.712 2.86781 200.516 2.58095 201.153 2.7479C201.79 2.91484 202.288 3.39963 202.746 3.87335M199.028 10.6998C198.488 10.4767 197.991 11.0802 197.716 11.5954C191.918 22.4619 186.19 33.6556 177.353 42.2349C176.561 43.0039 175.676 43.9329 175.821 45.0272C176.289 48.5349 174.417 52.2391 171.315 53.9421C169.906 54.7152 169.923 56.7102 170.129 58.3035C170.212 58.9414 170.453 59.741 171.094 59.795C172.974 59.9534 174.778 60.8788 176.003 62.3133C176.39 62.7659 177.123 62.483 177.626 62.1662C190.309 54.1931 200.054 42.4163 209.568 30.8452C209.897 30.446 210.246 29.943 210.075 29.4554C208.635 25.354 208.866 20.6929 210.704 16.7538C209.619 14.596 208.327 12.5428 206.85 10.6318C204.393 11.6985 201.503 11.7237 199.028 10.6998ZM168.948 66.5063C169.448 66.7683 170.053 66.5192 170.554 66.2579C171.869 65.5713 173.136 64.7919 174.342 63.9276C174.661 63.6992 174.756 63.2429 174.643 62.8674C174.531 62.4918 174.249 62.189 173.936 61.9519C172.961 61.2118 171.598 61.0171 170.455 61.4547C170.243 61.5356 170.033 61.6411 169.888 61.8142C169.717 62.0168 169.655 62.2867 169.6 62.5458C169.324 63.8554 169.106 65.1773 168.948 66.5063ZM204.563 7.96674C203.701 6.28177 202.372 4.83881 200.764 3.84167C199.82 4.67338 200.158 6.2337 199.607 7.36402C199.394 7.79902 199.045 8.17915 198.962 8.65596C198.878 9.13276 199.282 9.73093 199.74 9.57316C200.308 9.37719 200.918 9.67295 201.518 9.71167C202.726 9.78964 203.728 8.84337 204.563 7.96674ZM211.392 18.0674C210.469 19.9036 210.615 22.0724 210.783 24.1208C210.863 25.1 210.943 26.0792 211.023 27.0584C211.05 27.3814 211.225 27.8174 211.537 27.7279C211.9 26.7135 212.877 26.0319 213.323 25.0514C214.027 23.5021 213.245 21.7165 212.474 20.1989C212.114 19.4884 211.753 18.7779 211.392 18.0674ZM170.069 50.6716C170.108 51.2462 170.705 51.6763 171.28 51.6602C171.856 51.644 172.374 51.2715 172.711 50.804C173.047 50.3366 173.232 49.7798 173.411 49.2327C173.609 48.6304 173.807 48.0282 174.005 47.4259C174.17 46.9222 174.181 46.1521 173.654 46.0928C173.464 46.0714 173.282 46.1721 173.126 46.283C172.535 46.7028 172.105 47.3058 171.687 47.8971C171.307 48.4341 170.927 48.971 170.547 49.508C170.299 49.8573 170.041 50.2445 170.069 50.6716H170.069Z" fill="#8690A1"/>
<path fill-rule="evenodd" clip-rule="evenodd" d="M239.623 111.67C239.34 112.27 239.057 112.871 238.774 113.472C238.663 113.708 238.538 113.96 238.308 114.085C237.916 114.298 237.443 114.047 237.071 113.802C235.497 112.77 233.922 111.737 232.348 110.704C231.895 110.407 232.167 109.701 232.499 109.272C232.935 108.709 233.408 108.175 233.914 107.673C234.252 107.338 234.65 106.999 235.126 106.991C235.527 106.985 235.888 107.218 236.221 107.442C237.249 108.136 238.278 108.829 239.307 109.522C239.482 109.64 239.662 109.763 239.783 109.936C240.134 110.435 239.882 111.118 239.623 111.67ZM237.127 112.132C237.322 112.191 237.529 112.241 237.727 112.196C238.318 112.06 238.395 111.177 238.021 110.701C237.646 110.225 237.035 110.02 236.509 109.721C236.149 109.516 235.817 109.258 235.435 109.098C235.053 108.937 234.593 108.888 234.239 109.103C233.885 109.317 233.727 109.858 234.006 110.164C234.844 111.085 235.935 111.773 237.127 112.132V112.132Z" fill="#8690A1"/>
<path fill-rule="evenodd" clip-rule="evenodd" d="M239.324 114.208C240.318 113.972 240.051 112.316 240.866 111.7C241.501 111.22 242.4 111.621 243.084 112.028C243.809 112.46 244.534 112.891 245.26 113.323C245.606 113.529 245.961 113.742 246.21 114.06C246.458 114.377 246.58 114.827 246.407 115.191C246.195 115.633 245.642 115.804 245.359 116.205C244.99 116.728 245.144 117.548 244.65 117.955C244.149 118.368 243.405 118.037 242.851 117.699C241.829 117.075 240.808 116.45 239.786 115.826C239.477 115.637 239.151 115.43 238.999 115.101C238.847 114.772 238.971 114.292 239.324 114.208ZM243.342 116.068C243.781 115.918 244.134 115.593 244.472 115.276C244.718 115.046 244.389 114.668 244.096 114.503C243.471 114.151 242.845 113.799 242.219 113.446C242.023 113.336 241.75 113.235 241.599 113.401C241.109 113.935 241.038 114.806 241.434 115.412C241.831 116.018 242.657 116.302 243.342 116.068Z" fill="#8690A1"/>
<path fill-rule="evenodd" clip-rule="evenodd" d="M220.608 115.528C221.479 116.123 222.895 115.986 223.349 116.938C223.692 117.659 223.202 118.481 222.733 119.126C222.452 119.513 222.171 119.899 221.89 120.285C221.724 120.514 221.534 120.759 221.258 120.821C220.981 120.882 220.704 120.739 220.456 120.601C219.365 119.993 218.273 119.384 217.182 118.776C216.869 118.602 216.767 118.18 216.852 117.832C216.938 117.485 217.168 117.193 217.392 116.914C217.796 116.411 218.213 115.896 218.773 115.574C219.332 115.253 220.074 115.165 220.608 115.528ZM220.258 118.887C220.416 118.968 220.592 119.05 220.763 119.005C220.891 118.971 220.99 118.872 221.081 118.776C221.423 118.421 221.765 118.067 222.107 117.712C221.438 117.388 220.751 117.059 220.011 116.986C219.272 116.912 218.456 117.145 218.027 117.752C218.771 118.131 219.514 118.509 220.258 118.887Z" fill="#8690A1"/>
<path fill-rule="evenodd" clip-rule="evenodd" d="M205.308 73.6121C205.654 74.1387 205.546 74.8424 205.316 75.429C205.014 76.2021 204.504 76.9185 203.783 77.3298C203.062 77.741 202.115 77.8012 201.413 77.3591C200.71 76.9171 200.358 75.9341 200.734 75.1944C200.904 74.8596 201.196 74.5996 201.372 74.2676C201.51 74.0067 201.574 73.7069 201.744 73.4658C202.102 72.9595 202.806 72.8599 203.426 72.8687C204.129 72.8786 204.923 73.024 205.308 73.6121M203.739 73.9464C202.778 73.9343 201.875 74.7409 201.78 75.6981C201.741 76.0893 201.907 76.5756 202.297 76.6295C202.588 76.6699 202.844 76.4444 203.041 76.2247C203.455 75.7596 203.812 75.2425 204.099 74.6892C204.195 74.5036 204.28 74.2654 204.153 74.0989C204.061 73.9776 203.892 73.9483 203.739 73.9464Z" fill="#8690A1"/>
<path fill-rule="evenodd" clip-rule="evenodd" d="M225.226 46.8923C226.082 47.1129 226.671 47.9792 226.745 48.8599C226.819 49.7407 226.455 50.6121 225.927 51.3212C225.731 51.5851 225.505 51.8372 225.214 51.9915C224.644 52.2943 223.92 52.159 223.377 51.8106C222.833 51.4622 222.436 50.9322 222.063 50.4051C221.738 49.9448 221.408 49.3833 221.592 48.8504C221.7 48.5364 221.966 48.308 222.222 48.0956C223.085 47.3775 224.138 46.612 225.226 46.8923ZM223.312 50.7684C223.583 51.0238 223.966 51.1726 224.334 51.1174C224.853 51.0396 225.245 50.5824 225.427 50.09C225.608 49.5975 225.625 49.0628 225.691 48.542C225.295 48.1076 224.654 47.9127 224.084 48.0529C223.513 48.1931 223.036 48.6625 222.887 49.2308C222.745 49.7707 222.906 50.3858 223.312 50.7684H223.312Z" fill="#8690A1"/>
<path fill-rule="evenodd" clip-rule="evenodd" d="M195.068 188.5C197.073 181.409 200.858 174.973 204.603 168.626C205.236 167.554 206.021 166.372 207.25 166.169C207.734 166.089 207.99 165.562 208.155 165.1C210.186 159.401 210.382 153.064 208.706 147.252C208.228 145.592 208.817 143.833 209.4 142.208C210.903 138.013 212.407 133.818 213.911 129.623C213.049 128.133 210.778 128.177 209.614 126.909C208.116 125.277 209.246 122.682 210.419 120.803C217.273 109.826 224.127 98.8493 230.981 87.8726C231.821 86.5278 233.664 86.1062 235.208 86.4646C236.753 86.8229 238.072 87.7949 239.342 88.7437C244.341 92.4774 249.34 96.2112 254.339 99.9449C257.022 101.949 259.983 104.509 259.829 107.854C259.743 109.705 258.684 111.35 257.66 112.894C253.698 118.864 249.736 124.834 245.774 130.804C243.542 134.167 244.159 138.584 243.484 142.563C242.418 148.852 238.106 154.016 234.114 158.989C230.121 163.962 226.125 169.515 225.901 175.889C225.634 183.486 222.025 190.905 216.213 195.805C217.899 191.716 219.585 187.626 221.27 183.537C222.473 180.62 223.586 176.99 221.574 174.559C220.663 173.46 219.287 172.878 217.966 172.336C215.348 171.262 212.73 170.188 210.112 169.114C209.571 168.891 209.012 168.666 208.427 168.662C206.602 168.651 205.517 170.63 204.777 172.298C202.218 178.067 198.949 183.522 195.068 188.5ZM220.894 171.839C222.24 172.337 224.136 172.64 224.774 171.354C227.863 165.128 231.036 158.783 235.952 153.87C238.786 151.039 240.523 147.261 241.505 143.378C242.488 139.495 242.766 135.473 243.041 131.477C241.848 131.911 241.744 133.521 241.749 134.79C241.76 137.589 241.271 140.389 240.311 143.018C240.11 143.568 239.841 144.163 239.303 144.395C238.765 144.627 237.973 144.161 238.153 143.604C239.541 139.327 240.058 134.77 239.664 130.292C239.542 128.903 239.283 127.418 238.296 126.434C238.403 128.626 238.51 130.829 238.288 133.013C237.903 136.791 236.549 140.393 235.206 143.946C235.032 144.407 234.821 144.91 234.378 145.127C233.935 145.344 233.247 145 233.363 144.521C234.034 141.75 234.704 138.979 235.374 136.208C236.48 131.638 237.567 126.721 235.856 122.342C234.993 122.284 234.79 123.516 234.867 124.377C235.395 130.271 233.765 136.121 232.152 141.815C231.963 142.48 231.297 143.311 230.779 142.854C230.556 142.656 230.545 142.317 230.563 142.019C230.697 139.825 231.444 137.723 231.999 135.596C233.211 130.953 233.52 126.076 232.904 121.316C231.842 122.678 231.391 124.405 230.966 126.078C230.125 129.39 229.283 132.702 228.442 136.013C227.301 140.504 225.843 145.441 221.887 147.854C221.572 148.046 221.206 148.225 220.847 148.14C220.401 148.034 220.148 147.573 219.962 147.154C217.437 141.466 217.122 134.831 219.096 128.93C219.215 128.572 218.851 128.198 218.475 128.168C218.098 128.139 217.746 128.344 217.437 128.561C214.198 130.847 212.957 134.987 211.927 138.816C211.47 140.512 211.013 142.209 210.557 143.906C210.357 144.649 210.155 145.4 210.114 146.168C210.035 147.608 210.517 149.009 210.865 150.407C212.183 155.696 211.587 161.44 209.213 166.345C208.863 167.068 209.787 167.726 210.541 168.005C213.992 169.283 217.443 170.561 220.894 171.839ZM226.01 123.26C225.47 122.888 224.891 122.463 224.724 121.829C224.468 120.856 225.394 119.879 226.392 119.748C227.389 119.617 228.364 120.099 229.191 120.672C230.355 121.479 231.828 120.248 232.7 119.131C231.524 118.428 230.402 117.336 230.356 115.967C230.31 114.597 231.974 113.293 233.082 114.099C234.156 114.88 235.793 114.904 236.498 116.029C236.979 116.797 236.808 117.835 236.318 118.597C235.829 119.359 235.076 119.906 234.34 120.435C235.396 120.539 236.424 120.916 237.297 121.518C237.615 120.593 237.932 119.668 238.249 118.744C238.323 118.528 238.403 118.303 238.573 118.151C238.899 117.859 239.407 117.949 239.824 118.082C240.921 118.43 241.996 118.973 242.719 119.867C243.443 120.761 243.744 122.059 243.239 123.092C242.733 124.125 241.306 124.676 240.339 124.053C239.602 123.579 238.852 122.517 238.138 123.025C239.726 124.262 240.817 126.12 241.123 128.11C246.124 120.493 251.071 112.84 255.964 105.153C256.431 104.42 256.808 103.263 256.047 102.841C248.696 98.763 243.276 91.5548 235.498 88.3649C235.223 88.2519 234.922 88.1427 234.634 88.2185C234.332 88.2981 234.12 88.5606 233.93 88.8083C225.849 99.356 218.596 110.538 212.261 122.219C211.377 123.848 212.56 125.791 213.691 127.259C214.257 127.992 215.348 128.767 215.965 128.076C216.742 127.205 218.016 126.707 219.117 127.096C220.217 127.485 220.902 128.917 220.304 129.919C219.871 130.644 220.718 131.449 221.459 131.855C222.938 132.665 224.456 133.406 226.005 134.074C226.221 134.167 226.471 134.258 226.681 134.153C226.881 134.053 226.962 133.815 227.024 133.601C227.596 131.632 228.168 129.664 228.74 127.696C229.022 126.725 229.211 125.464 228.378 124.891C227.589 124.347 226.799 123.803 226.01 123.26ZM256.711 106.705C256.483 106.627 256.275 106.855 256.141 107.055C251.858 113.467 247.574 119.879 243.291 126.29C242.946 126.808 242.591 127.346 242.491 127.96C242.39 128.574 242.615 129.288 243.174 129.561C244.1 130.014 245.068 129.063 245.662 128.221C249.641 122.581 253.621 116.94 257.601 111.3C258.487 110.044 257.737 108.326 256.978 106.989C256.912 106.873 256.836 106.748 256.711 106.705ZM220.532 132.393C220.306 132.228 219.968 132.326 219.778 132.532C219.589 132.738 219.512 133.02 219.44 133.291C219.265 133.957 219.088 134.629 219.062 135.318C219.036 136.006 219.161 136.69 219.286 137.368C219.696 139.597 220.106 141.827 220.516 144.056C220.568 144.337 220.628 144.635 220.827 144.839C221.026 145.043 221.413 145.088 221.574 144.852C223.396 142.189 225.242 139.473 226.195 136.39C226.314 136.007 226.348 135.468 225.972 135.327C224.038 134.599 222.203 133.609 220.532 132.393ZM234.742 115.888C234.125 115.301 233.31 114.925 232.462 114.839C231.69 114.76 231.244 115.845 231.597 116.537C231.949 117.229 232.728 117.572 233.449 117.861C233.958 118.065 234.575 118.257 235.019 117.935C235.656 117.472 235.312 116.431 234.742 115.888ZM229.669 123.64C229.92 123.461 229.953 123.095 229.883 122.795C229.617 121.662 228.376 121.084 227.261 120.752C226.83 120.624 226.294 120.535 225.99 120.866C225.736 121.143 225.79 121.602 226.009 121.907C226.228 122.212 226.57 122.4 226.901 122.578C227.475 122.888 228.049 123.197 228.622 123.506C228.95 123.682 229.366 123.855 229.669 123.64ZM239.464 119.558C239.099 120.046 239.137 120.756 239.441 121.284C239.745 121.812 240.271 122.178 240.827 122.428C241.018 122.513 241.227 122.589 241.431 122.548C241.608 122.513 241.758 122.394 241.866 122.25C242.264 121.719 242.071 120.918 241.615 120.436C241.159 119.953 240.511 119.711 239.887 119.485C239.779 119.446 239.654 119.408 239.556 119.467C239.519 119.489 239.49 119.524 239.464 119.558Z" fill="#8690A1"/>
<path fill-rule="evenodd" clip-rule="evenodd" d="M68.7687 158.981C67.3847 160.097 67.0507 162.035 66.8123 163.797C65.7932 171.328 64.7741 178.859 63.7551 186.39C62.9789 185.759 62.7314 184.692 62.5943 183.701C61.0091 172.232 67.8171 160.912 66.6044 149.398C65.9794 143.464 63.2395 137.927 59.7915 133.058C57.4104 129.695 57.2769 125.191 58.1652 121.167C59.0536 117.144 60.8455 113.382 62.0542 109.443C67.429 91.9259 60.8889 73.2126 54.4229 56.0686C67.3075 49.8688 82.343 51.0696 96.617 51.9096C110.891 52.7495 126.242 52.809 138.139 44.877C139.77 62.0363 136.174 79.2147 132.599 96.0765C150.74 94.3179 168.88 92.5594 187.021 90.8009C187.541 90.7504 188.11 90.7115 188.542 91.0055C189.119 91.3976 189.207 92.1973 189.24 92.8938C190.088 110.739 190.603 128.6 190.782 146.464C190.787 146.912 190.771 147.412 190.455 147.73C190.185 148.002 189.772 148.059 189.391 148.101C163.976 150.919 138.56 153.737 113.145 156.556C110.947 156.799 107.816 156.23 107.945 154.022C108.519 144.179 108.184 134.283 106.945 124.501C100.191 124.247 93.3907 125.272 87.0113 127.505C85.564 128.012 83.8238 129.375 84.6044 130.694C89.7685 139.427 83.359 152.552 90.3727 159.882C92.7843 162.403 92.6176 166.368 92.1397 169.823C91.1152 177.23 89.3747 184.537 86.9505 191.61C88.1224 183.469 89.2944 175.328 90.4663 167.186C90.6929 165.612 90.8927 163.893 90.0731 162.531C89.3159 161.272 87.8666 160.626 86.4818 160.136C82.1045 158.587 77.447 157.833 72.8045 157.922C71.3873 157.949 69.8723 158.091 68.7687 158.981ZM74.4052 96.3307C74.2208 94.8997 73.6477 93.0896 72.2058 93.0386C73.1019 91.7484 74.9466 91.2193 76.3903 91.8384C76.6317 91.942 76.8755 92.0881 76.986 92.3264C77.1698 92.7226 76.9184 93.1709 76.7128 93.5563C75.6392 95.5684 75.7408 98.1563 76.9688 100.078C79.0046 98.5511 81.1041 96.9921 83.5577 96.3171C86.0114 95.6421 88.9354 96.0455 90.6018 97.9689C91.4444 98.9414 93.1587 98.4989 93.9269 97.4667C94.6952 96.4344 94.8073 95.0749 94.9767 93.7993C95.1462 92.5238 95.466 91.1463 96.4775 90.3509C97.6606 89.4205 99.469 89.6473 100.668 90.5575C101.866 91.4678 102.548 92.9081 102.96 94.3556C103.295 95.5279 103.625 96.9206 104.75 97.3907C105.614 97.7521 106.605 97.3911 107.428 96.9437C109.438 95.8514 111.121 94.2524 113.004 92.9529C114.887 91.6533 117.129 90.6261 119.397 90.9291C121.665 91.2322 123.795 93.2971 123.47 95.5617C122.956 99.1491 123.019 102.819 123.656 106.386C108.578 107.953 93.4428 108.975 78.2905 109.448C78.0112 109.457 77.9382 109.836 77.9507 110.115C78.067 112.704 78.1833 115.293 78.2995 117.882C78.3827 119.734 78.472 121.618 79.0956 123.364C79.7191 125.11 80.9688 126.728 82.7206 127.335C83.0836 127.46 83.4959 127.538 83.8426 127.372C92.4924 123.246 102.385 121.769 111.863 123.192C114.794 123.631 117.682 124.34 120.624 124.691C124.537 125.158 128.526 124.985 132.383 124.18C132.91 124.07 133.584 123.693 133.386 123.192C128.696 111.313 130.365 97.9531 132.816 85.4192C135.267 72.8853 138.447 60.1271 136.552 47.4971C129.128 52.8515 119.442 53.7178 110.289 53.8448C93.7732 54.0739 77.1432 52.5071 60.8003 54.9031C59.0866 55.1544 56.8545 56.2264 57.3712 57.8795C60.9954 69.4726 64.642 81.1763 65.7025 93.2763C66.2575 99.6092 66.1623 106.257 69.0866 111.902C69.0048 108.692 73.0147 106.184 75.865 107.662C75.3784 103.885 74.8918 100.108 74.4052 96.3307ZM117.441 126.862C117.391 126.041 116.399 125.681 115.591 125.52C113.612 125.125 111.633 124.731 109.654 124.336C109.416 124.288 109.153 124.245 108.943 124.367C108.625 124.551 108.603 124.992 108.62 125.359C109.044 134.809 109.467 144.26 109.891 153.711C109.902 153.944 109.916 154.19 110.042 154.386C110.252 154.712 110.687 154.791 111.072 154.828C113.199 155.03 115.342 154.87 117.471 154.687C141.235 152.65 164.764 147.873 188.605 147.179C189.446 147.154 189.702 146.037 189.706 145.196C189.785 127.47 189.166 109.741 187.849 92.0635C179.377 93.6989 170.755 94.5592 162.127 94.6303C160.12 94.6469 158.123 94.8871 156.131 95.1271C148.578 96.0368 141.025 96.9465 133.472 97.8563C133.168 97.8929 132.846 97.9367 132.608 98.1293C132.364 98.3263 132.255 98.642 132.171 98.9439C131.719 100.57 131.676 102.308 132.05 103.954C140.094 101.468 149.634 105.423 153.56 112.871C157.221 119.816 156.871 128.787 152.407 135.244C147.943 141.702 139.457 145.209 131.801 143.475C124.144 141.74 117.917 134.699 117.441 126.862ZM77.0628 123.199C76.0605 122.041 76.3732 120.298 76.6031 118.784C76.9695 116.371 76.9711 113.903 76.608 111.49C76.4704 110.575 76.2351 109.591 75.5115 109.014C74.566 108.261 73.0944 108.537 72.1921 109.341C71.2898 110.145 70.844 111.338 70.5349 112.507C69.407 116.771 69.6605 121.347 68.2095 125.513C68.0093 126.088 67.721 126.71 67.1529 126.929C66.5849 127.148 65.7881 126.582 66.049 126.032C68.8686 120.085 68.5388 112.751 65.197 107.081C63.8214 108.761 63.2069 110.92 62.626 113.012C61.7063 116.325 60.7867 119.638 59.867 122.951C59.5547 124.076 59.2398 125.221 59.2774 126.388C59.3338 128.135 60.1693 129.75 60.9857 131.295C62.8293 134.785 64.6728 138.275 66.5163 141.764C68.5253 145.567 68.3722 150.087 68.5593 154.384C68.5805 154.873 68.6128 155.382 68.8579 155.804C69.1031 156.227 69.6298 156.529 70.0872 156.357C72.4536 155.468 75.0855 155.886 77.5767 156.315C80.0843 156.748 82.5919 157.18 85.0994 157.613C85.7474 157.725 86.3148 157.067 86.3858 156.413C86.4568 155.76 86.1902 155.124 85.9789 154.501C84.1142 149.009 86.3652 142.92 85.3559 137.208C84.3994 131.794 80.6612 127.354 77.0628 123.199ZM93.0814 100.862C90.7012 101.138 89.1032 98.26 86.7577 97.7703C85.2032 97.4458 83.6552 98.2314 82.2611 98.9917C80.9213 99.7222 79.5571 100.471 78.5126 101.584C77.4681 102.696 76.7784 104.254 77.0804 105.75C77.215 106.417 77.5867 107.085 78.2124 107.353C78.5437 107.494 78.9129 107.512 79.273 107.524C84.9736 107.725 90.6752 107.287 96.3624 106.849C104.483 106.224 112.604 105.598 120.724 104.973C121.714 102.661 121.974 100.043 121.459 97.5815C121.123 95.9733 120.471 94.276 121.081 92.7505C117.434 92.8509 113.835 94.245 111.072 96.6279C109.689 97.8206 108.352 99.3287 106.536 99.5276C104.852 99.7123 103.241 98.6568 102.206 97.3151C101.17 95.9733 100.571 94.3565 99.8179 92.8383C99.6788 92.5579 99.5042 92.2544 99.2046 92.1638C98.8347 92.0518 98.4597 92.3176 98.1993 92.6032C97.0522 93.8611 96.8086 95.6656 96.3174 97.2956C95.8263 98.9256 94.7725 100.667 93.0814 100.862ZM127.705 128.211C128.801 131.736 131.998 134.747 135.689 134.823C137.4 134.858 139.07 134.29 140.615 133.555C142.428 132.693 144.148 131.572 145.461 130.055C148.493 126.549 148.832 120.987 146.248 117.138C143.665 113.29 138.389 111.498 133.995 112.974C133.453 113.156 132.866 113.443 132.688 113.987C132.587 114.297 132.64 114.634 132.699 114.955C133.347 118.49 134.519 121.93 136.163 125.126C134.361 125.329 132.558 125.531 130.756 125.734C130.007 125.818 129.23 125.911 128.588 126.306C127.946 126.702 127.481 127.491 127.705 128.211ZM154.14 122.537C154.05 120.273 153.86 117.992 153.203 115.823C152.072 112.086 149.523 108.797 146.187 106.768C142.85 104.739 138.757 103.99 134.918 104.705C134.076 104.862 133.196 105.116 132.619 105.749C131.301 107.196 132.291 109.458 132.407 111.412C136.173 110.773 140.194 111.176 143.526 113.043C146.858 114.909 149.393 118.35 149.685 122.158C151.176 122.187 152.665 122.313 154.14 122.537ZM126.12 128.032C126.138 127.649 126.253 127.157 125.92 126.967C125.803 126.9 125.661 126.899 125.527 126.899C123.65 126.905 121.774 126.911 119.897 126.917C119.759 126.917 119.614 126.919 119.491 126.983C119.213 127.13 119.178 127.51 119.198 127.824C119.355 130.349 120.645 132.645 121.904 134.839C122.103 135.186 122.316 135.548 122.661 135.751C123.005 135.954 123.52 135.926 123.73 135.586C124.577 134.209 125.582 132.93 126.72 131.781C127.19 131.307 127.053 130.509 126.772 129.903C126.491 129.297 126.088 128.699 126.12 128.032Z" fill="#8690A1"/>
</svg>
