<svg width="35" height="40" viewBox="0 0 35 40" fill="none" xmlns="http://www.w3.org/2000/svg">
<path fill-rule="evenodd" clip-rule="evenodd" d="M17.5 0C15.775 0 12.8925 0.6625 10.18 1.4C7.40501 2.15 4.60751 3.0375 2.96251 3.575C2.27474 3.80213 1.66499 4.21866 1.2033 4.77675C0.741621 5.33484 0.446731 6.01185 0.352513 6.73C-1.13749 17.9225 2.32001 26.2175 6.51501 31.705C8.29396 34.0524 10.4151 36.1196 12.8075 37.8375C13.7725 38.52 14.6675 39.0425 15.4275 39.4C16.1275 39.73 16.88 40 17.5 40C18.12 40 18.87 39.73 19.5725 39.4C20.4887 38.9547 21.3652 38.4319 22.1925 37.8375C24.585 36.1196 26.7061 34.0524 28.485 31.705C32.68 26.2175 36.1375 17.9225 34.6475 6.73C34.5534 6.0115 34.2586 5.3341 33.797 4.77558C33.3353 4.21706 32.7255 3.80007 32.0375 3.5725C29.6495 2.78953 27.243 2.06432 24.82 1.3975C22.1075 0.665 19.225 0 17.5 0ZM17.5 12.5C18.3856 12.4987 19.2431 12.8108 19.9206 13.3811C20.5981 13.9515 21.0519 14.7432 21.2016 15.616C21.3513 16.4889 21.1873 17.3865 20.7386 18.15C20.2899 18.9135 19.5854 19.4936 18.75 19.7875L19.7125 24.7625C19.7475 24.9434 19.7421 25.1299 19.6966 25.3085C19.6511 25.4871 19.5667 25.6534 19.4494 25.7956C19.3321 25.9377 19.1848 26.0522 19.0181 26.1307C18.8513 26.2093 18.6693 26.25 18.485 26.25H16.515C16.3309 26.2497 16.1492 26.2087 15.9827 26.13C15.8163 26.0512 15.6693 25.9367 15.5523 25.7946C15.4353 25.6525 15.3511 25.4863 15.3057 25.3079C15.2604 25.1295 15.255 24.9432 15.29 24.7625L16.25 19.7875C15.4146 19.4936 14.7101 18.9135 14.2614 18.15C13.8127 17.3865 13.6487 16.4889 13.7984 15.616C13.9481 14.7432 14.4019 13.9515 15.0794 13.3811C15.7569 12.8108 16.6144 12.4987 17.5 12.5Z" fill="#00c000"/>
</svg>
