<svg width="72" height="72" viewBox="0 0 72 72" fill="none" xmlns="http://www.w3.org/2000/svg">
<rect width="72" height="72" rx="36" fill="#0150B7"/>
<path d="M34 37C34.4294 37.5741 34.9773 38.0491 35.6065 38.3929C36.2357 38.7367 36.9315 38.9411 37.6466 38.9923C38.3618 39.0435 39.0796 38.9403 39.7513 38.6897C40.4231 38.4392 41.0331 38.047 41.54 37.54L44.54 34.54C45.4508 33.597 45.9547 32.3339 45.9434 31.023C45.932 29.712 45.4061 28.4579 44.4791 27.5309C43.552 26.6038 42.298 26.078 40.987 26.0666C39.676 26.0552 38.413 26.5592 37.47 27.47L35.75 29.18M38 35C37.5705 34.4258 37.0226 33.9508 36.3934 33.607C35.7642 33.2633 35.0685 33.0588 34.3533 33.0076C33.6382 32.9564 32.9204 33.0596 32.2486 33.3102C31.5769 33.5608 30.9669 33.9529 30.46 34.46L27.46 37.46C26.5492 38.403 26.0452 39.666 26.0566 40.977C26.068 42.288 26.5939 43.542 27.5209 44.4691C28.4479 45.3961 29.702 45.9219 31.013 45.9333C32.324 45.9447 33.587 45.4408 34.53 44.53L36.24 42.82" stroke="white" stroke-width="2" stroke-linecap="round" stroke-linejoin="round"/>
</svg>
