<svg width="20" height="20" viewBox="0 0 98 93" fill="none" xmlns="http://www.w3.org/2000/svg">
<path d="M39.1195 6.52951C43.3359 -1.37638 54.6677 -1.37637 58.8842 6.52952L96.2175 76.5295C100.196 83.9899 94.7902 93.0001 86.3351 93.0001H11.6686C3.2135 93.0001 -2.19263 83.9899 1.78623 76.5295L39.1195 6.52951Z" fill="#faad14"/>
<path d="M54.4835 74.2607C54.4835 75.0891 53.8119 75.7607 52.9835 75.7607H45.0191C44.1907 75.7607 43.5191 75.0891 43.5191 74.2607V68.2898C43.5191 67.4614 44.1907 66.7898 45.0191 66.7898H52.9835C53.8119 66.7898 54.4835 67.4614 54.4835 68.2898V74.2607ZM54.4835 56.319C54.4835 57.1474 53.8119 57.819 52.9835 57.819H45.0191C44.1907 57.819 43.5191 57.1474 43.5191 56.319L43.5191 32.4063C43.5191 31.5779 44.1907 30.9063 45.0191 30.9063H52.9835C53.8119 30.9063 54.4835 31.5779 54.4835 32.4063L54.4835 56.319Z" fill="white"/>
</svg>
