<svg width="51" height="46" viewBox="0 0 21 16" fill="none" xmlns="http://www.w3.org/2000/svg">
<path d="M20.0553 8.25704L20.1839 7.99999L20.0553 7.74293C19.2165 6.0669 17.7864 4.53545 16.1037 3.42248C14.4215 2.30984 12.4464 1.58905 10.5 1.58905C8.55363 1.58905 6.5785 2.30984 4.89629 3.42248C3.21358 4.53545 1.7835 6.0669 0.944702 7.74293L0.816056 7.99999L0.944702 8.25704C1.7835 9.93307 3.21358 11.4645 4.89629 12.5775C6.5785 13.6901 8.55363 14.4109 10.5 14.4109C12.4464 14.4109 14.4215 13.6901 16.1037 12.5775C17.7864 11.4645 19.2165 9.93307 20.0553 8.25704ZM0.622037 7.99998C2.24104 4.22849 6.04844 1.57046 10.5 1.57046C14.9516 1.57046 18.759 4.22849 20.378 7.99999C18.759 11.7715 14.9516 14.4295 10.5 14.4295C6.04844 14.4295 2.24104 11.7715 0.622037 7.99998ZM13.6994 7.99999C13.6994 7.16803 13.2841 6.37344 12.7142 5.79897C12.1438 5.22395 11.3485 4.79916 10.5 4.79916C9.65149 4.79916 8.85623 5.22395 8.28577 5.79897C7.71587 6.37344 7.30064 7.16803 7.30064 7.99999C7.30064 8.83195 7.71587 9.62654 8.28577 10.201C8.85623 10.776 9.65149 11.2008 10.5 11.2008C11.3485 11.2008 12.1438 10.776 12.7142 10.201C13.2841 9.62654 13.6994 8.83195 13.6994 7.99999ZM6.99103 7.99999C6.99103 5.99604 8.45512 4.48875 10.5 4.48875C12.5449 4.48875 14.009 5.99604 14.009 7.99999C14.009 10.0039 12.5449 11.5112 10.5 11.5112C8.45512 11.5112 6.99103 10.0039 6.99103 7.99999Z" fill="white" stroke="white" stroke-width="1.14873"/>
</svg>
