<svg width="22" height="22" viewBox="0 0 22 22" fill="none" xmlns="http://www.w3.org/2000/svg">
<path d="M4.46154 14.4626C4.91611 14.4626 5.36624 14.3731 5.78621 14.1991C6.20618 14.0252 6.58778 13.7702 6.90922 13.4488C7.23065 13.1273 7.48562 12.7457 7.65958 12.3258C7.83354 11.9058 7.92308 11.4557 7.92308 11.0011C7.92308 10.5465 7.83354 10.0964 7.65958 9.67642C7.48562 9.25644 7.23065 8.87485 6.90922 8.55341C6.58778 8.23198 6.20618 7.977 5.78621 7.80304C5.36624 7.62909 4.91611 7.53955 4.46154 7.53955C3.54348 7.53955 2.66303 7.90425 2.01386 8.55341C1.3647 9.20258 1 10.083 1 11.0011C1 11.9191 1.3647 12.7996 2.01386 13.4488C2.66303 14.0979 3.54348 14.4626 4.46154 14.4626Z" stroke="#0150B7" stroke-width="1.71429" stroke-linecap="round" stroke-linejoin="round"/>
<path d="M17.5382 21C18.4563 21 19.3367 20.6353 19.9859 19.9861C20.635 19.337 20.9997 18.4565 20.9997 17.5384C20.9997 16.6204 20.635 15.7399 19.9859 15.0908C19.3367 14.4416 18.4563 14.0769 17.5382 14.0769C16.6201 14.0769 15.7397 14.4416 15.0905 15.0908C14.4414 15.7399 14.0767 16.6204 14.0767 17.5384C14.0767 18.4565 14.4414 19.337 15.0905 19.9861C15.7397 20.6353 16.6201 21 17.5382 21Z" stroke="#0150B7" stroke-width="1.71429" stroke-linecap="round" stroke-linejoin="round"/>
<path d="M17.5382 7.92332C18.4563 7.92332 19.3367 7.55862 19.9859 6.90946C20.635 6.26029 20.9997 5.37984 20.9997 4.46178C20.9997 3.54373 20.635 2.66327 19.9859 2.01411C19.3367 1.36494 18.4563 1.00024 17.5382 1.00024C16.6201 1.00024 15.7397 1.36494 15.0905 2.01411C14.4414 2.66327 14.0767 3.54373 14.0767 4.46178C14.0767 5.37984 14.4414 6.26029 15.0905 6.90946C15.7397 7.55862 16.6201 7.92332 17.5382 7.92332Z" stroke="#0150B7" stroke-width="1.71429" stroke-linecap="round" stroke-linejoin="round"/>
<path d="M7.5542 9.46154L14.4465 6" stroke="#0150B7" stroke-width="1.71429" stroke-linecap="round" stroke-linejoin="round"/>
<path d="M7.5542 12.5393L14.4465 16.0008" stroke="#0150B7" stroke-width="1.71429" stroke-linecap="round" stroke-linejoin="round"/>
</svg>
