<svg width="72" height="72" viewBox="0 0 72 72" fill="none" xmlns="http://www.w3.org/2000/svg">
<rect width="72" height="72" rx="36" fill="#0150B7"/>
<path d="M36 25V47M41 29H33.5C32.5717 29 31.6815 29.3687 31.0251 30.0251C30.3687 30.6815 30 31.5717 30 32.5C30 33.4283 30.3687 34.3185 31.0251 34.9749C31.6815 35.6313 32.5717 36 33.5 36H38.5C39.4283 36 40.3185 36.3687 40.9749 37.0251C41.6313 37.6815 42 38.5717 42 39.5C42 40.4283 41.6313 41.3185 40.9749 41.9749C40.3185 42.6313 39.4283 43 38.5 43H30" stroke="white" stroke-width="2" stroke-linecap="round" stroke-linejoin="round"/>
</svg>
