<svg width="20" height="20" viewBox="0 0 20 20" fill="none" xmlns="http://www.w3.org/2000/svg">
<path d="M17.0063 2.90005C16.0899 1.97683 14.9992 1.24502 13.7975 0.747162C12.5958 0.249301 11.3071 -0.00464808 10.0063 6.44027e-05C8.26744 0.0017644 6.55942 0.460312 5.05347 1.32978C3.54751 2.19926 2.29644 3.44914 1.42552 4.95425C0.554596 6.45936 0.0944223 8.16692 0.0910473 9.90579C0.0876848 11.6448 0.541258 13.354 1.40634 14.8625L0.00634766 20L5.25633 18.625C6.70601 19.4315 8.33494 19.8614 9.99381 19.875C12.6309 19.8751 15.1613 18.8335 17.034 16.977C18.9069 15.1206 19.9706 12.5995 19.9938 9.96254C19.985 8.64667 19.7165 7.34547 19.2039 6.13355C18.6913 4.92162 17.9444 3.8228 17.0063 2.90005ZM10.0063 18.1625C8.52844 18.1635 7.07758 17.7663 5.80633 17.0125L5.50633 16.825L2.39384 17.65L3.21884 14.6125L3.01884 14.3C1.9554 12.5834 1.55852 10.5363 1.90337 8.54654C2.24821 6.55686 3.31085 4.76275 4.88995 3.50409C6.46907 2.24542 8.45494 1.60963 10.4714 1.71717C12.4879 1.8247 14.395 2.66808 15.8313 4.08755C17.4013 5.62278 18.3 7.71692 18.3313 9.91254C18.3115 12.1074 17.4257 14.2056 15.8665 15.7508C14.3075 17.2958 12.2013 18.1626 10.0063 18.1625ZM14.5188 11.9875C14.2688 11.8625 13.0563 11.2625 12.8313 11.1875C12.6063 11.1125 12.4313 11.0625 12.2688 11.3125C12.0243 11.6477 11.7613 11.9689 11.4813 12.275C11.3438 12.45 11.1938 12.4625 10.9438 12.275C9.51844 11.7118 8.33094 10.6743 7.58132 9.33754C7.31882 8.90004 7.83132 8.92504 8.30632 7.98755C8.34144 7.91992 8.35969 7.84492 8.35969 7.7688C8.35969 7.69267 8.34144 7.61767 8.30632 7.55005C8.30632 7.42504 7.74382 6.20004 7.54382 5.71254C7.34382 5.22504 7.14382 5.30004 6.98132 5.28754H6.49382C6.36751 5.28948 6.24307 5.31837 6.12882 5.37226C6.01457 5.42614 5.91315 5.50381 5.83133 5.60004C5.55085 5.87277 5.33209 6.20244 5.18978 6.56684C5.04747 6.93124 4.98492 7.32191 5.00633 7.71255C5.0847 8.64767 5.43686 9.53892 6.01883 10.275C7.08407 11.8698 8.54394 13.1617 10.2563 14.025C11.1544 14.5493 12.1982 14.7685 13.2313 14.65C13.5753 14.5818 13.9012 14.4419 14.1875 14.2394C14.474 14.037 14.7147 13.7765 14.8938 13.475C15.0598 13.107 15.112 12.6979 15.0438 12.3C14.9313 12.175 14.7688 12.1125 14.5188 11.9875Z" fill="#009ea1"/>
</svg>
