<svg width="20" height="20" viewBox="0 0 20 20" fill="none" xmlns="http://www.w3.org/2000/svg">
<path fill-rule="evenodd" clip-rule="evenodd" d="M5.4502 15.1586L3.96735 17.7269L5.6994 18.7269L15.1994 2.27246L13.4673 1.27246L11.9162 3.95909C11.2965 3.83665 10.6558 3.77246 10 3.77246C5.83337 3.77246 2.27504 6.36413 0.833374 10.0225C1.70697 12.2393 3.35778 14.0644 5.4502 15.1586ZM6.2806 13.7203L7.06783 12.3568C6.55626 11.7156 6.25004 10.9039 6.25004 10.0225C6.25004 7.95579 7.93337 6.27246 10 6.27246C10.1892 6.27246 10.3751 6.28656 10.5568 6.31375L11.0253 5.50219C10.6886 5.46047 10.3464 5.43913 10 5.43913C6.84171 5.43913 4.02504 7.21413 2.65004 10.0225C3.44716 11.6505 4.72878 12.9313 6.2806 13.7203ZM9.59567 7.9784C8.63899 8.16681 7.91671 9.0108 7.91671 10.0225C7.91671 10.2575 7.95571 10.4836 8.02758 10.6944L9.59567 7.9784ZM10 16.2725C9.48067 16.2725 8.97075 16.2322 8.47321 16.1546L9.38064 14.5829C9.58541 14.5981 9.79199 14.6058 10 14.6058C13.1584 14.6058 15.975 12.8308 17.35 10.0225C16.6097 8.51038 15.4514 7.29787 14.0469 6.50069L14.8759 5.06479C16.8136 6.17334 18.339 7.9221 19.1667 10.0225C17.725 13.6808 14.1667 16.2725 10 16.2725ZM10 13.7725C9.94988 13.7725 9.89994 13.7715 9.85025 13.7695L10.94 11.8819C11.6182 11.5382 12.0834 10.8343 12.0834 10.0225C12.0834 9.98374 12.0823 9.94527 12.0802 9.90708L13.1693 8.02069C13.537 8.60039 13.75 9.28716 13.75 10.0225C13.75 12.0891 12.0667 13.7725 10 13.7725Z" fill="#A6A6BE"/>
</svg>
