<svg width="56" height="56" viewBox="0 0 56 56" fill="none" xmlns="http://www.w3.org/2000/svg">
<circle cx="28.0015" cy="28.0017" r="23.335" fill="#BF1D26"/>
<path d="M30.5937 38.0086C30.5937 38.34 30.3251 38.6086 29.9937 38.6086L26.0082 38.6086C25.6768 38.6086 25.4082 38.34 25.4082 38.0086L25.4082 34.9659C25.4082 34.6345 25.6768 34.3659 26.0082 34.3659L29.9937 34.3659C30.3251 34.3659 30.5937 34.6345 30.5937 34.9659L30.5937 38.0086ZM30.5937 29.5232C30.5937 29.8546 30.3251 30.1232 29.9937 30.1232L26.0082 30.1232C25.6768 30.1232 25.4082 29.8546 25.4082 29.5232L25.4082 17.995C25.4082 17.6636 25.6768 17.395 26.0082 17.395L29.9937 17.395C30.3251 17.395 30.5937 17.6636 30.5937 17.995L30.5937 29.5232Z" fill="white"/>
</svg>
