<svg width="16" height="16" viewBox="0 0 16 16" fill="none" xmlns="http://www.w3.org/2000/svg">
<circle cx="8" cy="8" r="8" fill="#BF1D26"/>
<path d="M8.73828 8.62854L7.26074 8.62854C7.23242 8.62846 7.20996 8.60513 7.20996 8.57678L7.20996 4.51331C7.21013 4.48511 7.23252 4.46261 7.26074 4.46252L8.73828 4.46252C8.76657 4.46252 8.78987 4.48506 8.79004 4.51331L8.79004 8.57678C8.79004 8.60518 8.76668 8.62854 8.73828 8.62854ZM8.73828 11.5377L7.26074 11.5377C7.23242 11.5376 7.20996 11.5143 7.20996 11.486L7.20996 10.3317C7.21004 10.3034 7.23246 10.28 7.26074 10.2799L8.73828 10.2799C8.76663 10.2799 8.78996 10.3033 8.79004 10.3317L8.79004 11.486C8.79004 11.5144 8.76668 11.5377 8.73828 11.5377Z" fill="white" stroke="white" stroke-width="0.197173"/>
</svg>
