<svg width="47" height="47" viewBox="0 0 47 47" fill="none" xmlns="http://www.w3.org/2000/svg">
<circle cx="23.335" cy="23.335" r="23.335" fill="#1E82C0"/>
<path d="M20.8427 13.5777C20.8427 13.3361 21.0385 13.1402 21.2802 13.1402L25.3893 13.1402C25.6309 13.1402 25.8268 13.3361 25.8268 13.5777L25.8268 16.7806C25.8268 17.0223 25.6309 17.2182 25.3893 17.2182L21.2802 17.2182C21.0385 17.2182 20.8427 17.0223 20.8427 16.7806L20.8427 13.5777ZM20.8426 21.7337C20.8426 21.492 21.0385 21.2961 21.2802 21.2961L25.3893 21.2961C25.6309 21.2961 25.8268 21.492 25.8268 21.7337L25.8268 33.0925C25.8268 33.3341 25.6309 33.53 25.3893 33.53L21.2802 33.53C21.0385 33.53 20.8426 33.3341 20.8426 33.0925L20.8426 21.7337Z" fill="white"/>
</svg>
