<svg width="16" height="16" viewBox="0 0 16 16" fill="none" xmlns="http://www.w3.org/2000/svg">
<circle cx="8" cy="8" r="8" fill="#1E82C0"/>
<path d="M7.2959 7.39551L8.7041 7.39551C8.73461 7.39551 8.75977 7.42066 8.75977 7.45117L8.75976 11.3447C8.75976 11.3752 8.73461 11.4004 8.7041 11.4004L7.2959 11.4004C7.26539 11.4004 7.24023 11.3752 7.24023 11.3447L7.24023 7.45117C7.24023 7.42066 7.26539 7.39551 7.2959 7.39551ZM7.2959 4.59961L8.7041 4.59961C8.73461 4.59961 8.75977 4.62476 8.75977 4.65527L8.75977 5.75293C8.75977 5.78344 8.73461 5.80859 8.7041 5.80859L7.2959 5.80859C7.26539 5.80859 7.24023 5.78344 7.24023 5.75293L7.24023 4.65527C7.24023 4.62476 7.26539 4.59961 7.2959 4.59961Z" fill="white" stroke="white" stroke-width="0.189515"/>
</svg>
