<svg width="47" height="47" viewBox="0 0 47 47" fill="none" xmlns="http://www.w3.org/2000/svg">
<circle cx="23.3333" cy="23.3333" r="23.3333" fill="#199E4E"/>
<circle cx="23.3334" cy="23.3334" r="17.3538" fill="#199E4E" stroke="#199E4E" stroke-width="5.37723"/>
<path d="M23.3337 4.47809C33.7417 4.47822 42.1882 12.9256 42.1882 23.3336C42.1881 33.7414 33.7416 42.1879 23.3337 42.188C12.9257 42.188 4.47841 33.7415 4.47827 23.3336C4.47827 12.9255 12.9257 4.47809 23.3337 4.47809ZM23.3337 8.24957C15.0186 8.24957 8.24976 15.0184 8.24976 23.3336C8.24989 31.6486 15.0187 38.4175 23.3337 38.4175C31.6487 38.4174 38.4176 31.6485 38.4177 23.3336C38.4177 15.0185 31.6488 8.24971 23.3337 8.24957ZM31.616 15.3716C31.8215 15.1664 32.1544 15.1674 32.3591 15.3736L34.2781 17.3052C34.4818 17.5104 34.4813 17.8419 34.2771 18.0464L19.9333 32.3892C19.7283 32.5942 19.3962 32.5942 19.1912 32.3892L12.3914 25.5904C12.1863 25.3854 12.1863 25.0523 12.3914 24.8472L14.3083 22.9312C14.5131 22.7265 14.8454 22.7259 15.0505 22.9302L19.1912 27.0552C19.3963 27.2595 19.7286 27.259 19.9333 27.0543L31.616 15.3716Z" fill="white"/>
<path d="M23.3337 4.47809C33.7417 4.47822 42.1882 12.9256 42.1882 23.3336C42.1881 33.7414 33.7416 42.1879 23.3337 42.188C12.9257 42.188 4.47841 33.7415 4.47827 23.3336C4.47827 12.9255 12.9257 4.47809 23.3337 4.47809ZM23.3337 8.24957C15.0186 8.24957 8.24976 15.0184 8.24976 23.3336C8.24989 31.6486 15.0187 38.4175 23.3337 38.4175C31.6487 38.4174 38.4176 31.6485 38.4177 23.3336C38.4177 15.0185 31.6488 8.24971 23.3337 8.24957ZM31.616 15.3716C31.8215 15.1664 32.1544 15.1674 32.3591 15.3736L34.2781 17.3052C34.4818 17.5104 34.4813 17.8419 34.2771 18.0464L19.9333 32.3892C19.7283 32.5942 19.3962 32.5942 19.1912 32.3892L12.3914 25.5904C12.1863 25.3854 12.1863 25.0523 12.3914 24.8472L14.3083 22.9312C14.5131 22.7265 14.8454 22.7259 15.0505 22.9302L19.1912 27.0552C19.3963 27.2595 19.7286 27.259 19.9333 27.0543L31.616 15.3716Z" stroke="white"/>
<circle cx="23.3333" cy="23.3333" r="17.8889" stroke="#199E4E" stroke-width="10.8889"/>
</svg>
