<svg width="16" height="16" viewBox="0 0 16 16" fill="none" xmlns="http://www.w3.org/2000/svg">
<circle cx="8" cy="8" r="8" fill="#199E4E"/>
<circle cx="7.99998" cy="7.99998" r="5.79623" fill="#199E4E" stroke="#199E4E" stroke-width="1.53635"/>
<path d="M8.00024 1.5354C11.5686 1.53551 14.4651 4.43183 14.4651 8.00024C14.465 11.5686 11.5686 14.465 8.00024 14.4651C4.43183 14.4651 1.53551 11.5686 1.5354 8.00024C1.5354 4.43176 4.43176 1.5354 8.00024 1.5354ZM8.00024 2.82837C5.14933 2.82837 2.82837 5.14933 2.82837 8.00024C2.82848 10.8511 5.1494 13.1721 8.00024 13.1721C10.851 13.172 13.172 10.851 13.1721 8.00024C13.1721 5.1494 10.8511 2.82848 8.00024 2.82837ZM10.8606 5.24927C10.9193 5.19056 11.015 5.1904 11.0735 5.24927L11.7737 5.95435C11.8319 6.01298 11.8311 6.10783 11.7727 6.16626L6.81274 11.1262C6.75415 11.1846 6.65935 11.1847 6.60083 11.1262L4.22778 8.7522C4.1692 8.69362 4.1692 8.59886 4.22778 8.54028L4.927 7.84106C4.9855 7.78257 5.0803 7.78268 5.13892 7.84106L6.60083 9.29712C6.65938 9.35545 6.75423 9.35545 6.81274 9.29712L10.8606 5.24927Z" fill="white"/>
<path d="M8.00024 1.5354C11.5686 1.53551 14.4651 4.43183 14.4651 8.00024C14.465 11.5686 11.5686 14.465 8.00024 14.4651C4.43183 14.4651 1.53551 11.5686 1.5354 8.00024C1.5354 4.43176 4.43176 1.5354 8.00024 1.5354ZM8.00024 2.82837C5.14933 2.82837 2.82837 5.14933 2.82837 8.00024C2.82848 10.8511 5.1494 13.1721 8.00024 13.1721C10.851 13.172 13.172 10.851 13.1721 8.00024C13.1721 5.1494 10.8511 2.82848 8.00024 2.82837ZM10.8606 5.24927C10.9193 5.19056 11.015 5.1904 11.0735 5.24927L11.7737 5.95435C11.8319 6.01298 11.8311 6.10783 11.7727 6.16626L6.81274 11.1262C6.75415 11.1846 6.65935 11.1847 6.60083 11.1262L4.22778 8.7522C4.1692 8.69362 4.1692 8.59886 4.22778 8.54028L4.927 7.84106C4.9855 7.78257 5.0803 7.78268 5.13892 7.84106L6.60083 9.29712C6.65938 9.35545 6.75423 9.35545 6.81274 9.29712L10.8606 5.24927Z" stroke="white"/>
<circle cx="8" cy="8" r="6.44444" stroke="#199E4E" stroke-width="3.11111"/>
</svg>
