<svg width="47" height="47" viewBox="0 0 47 47" fill="none" xmlns="http://www.w3.org/2000/svg">
<path d="M18.9425 5.12458C20.8167 1.6106 25.8534 1.61059 27.7275 5.12457L44.3213 36.2379C46.0898 39.5539 43.6869 43.5587 39.9288 43.5587H6.74129C2.98319 43.5587 0.580301 39.5539 2.34881 36.2379L18.9425 5.12458Z" fill="#DEA916"/>
<path d="M25.772 35.3984C25.772 35.6734 25.5491 35.8962 25.2742 35.8962L21.3964 35.8962C21.1214 35.8962 20.8986 35.6734 20.8986 35.3984L20.8986 32.4067C20.8986 32.1318 21.1214 31.9089 21.3964 31.9089L25.2742 31.9089C25.5491 31.9089 25.772 32.1318 25.772 32.4067L25.772 35.3984ZM25.772 27.4237C25.772 27.6987 25.5491 27.9216 25.2742 27.9216L21.3964 27.9216C21.1214 27.9216 20.8986 27.6987 20.8986 27.4237L20.8986 16.4574C20.8986 16.1824 21.1214 15.9595 21.3964 15.9595L25.2742 15.9595C25.5491 15.9595 25.772 16.1824 25.772 16.4574L25.772 27.4237Z" fill="white"/>
</svg>
