<svg width="16" height="16" viewBox="0 0 16 16" fill="none" xmlns="http://www.w3.org/2000/svg">
<path d="M6.49425 1.75689C7.13676 0.552178 8.86351 0.552177 9.50602 1.75688L15.1949 12.4235C15.8012 13.5604 14.9774 14.9333 13.689 14.9333H2.31126C1.02286 14.9333 0.199075 13.5604 0.805378 12.4235L6.49425 1.75689Z" fill="#DEA916"/>
<path d="M8.66455 9.49194L7.33545 9.49194C7.28597 9.49194 7.24579 9.45154 7.24561 9.4021L7.2456 5.64233C7.2456 5.59274 7.28585 5.55249 7.33545 5.55249L8.66455 5.55249C8.71415 5.55249 8.75439 5.59274 8.75439 5.64233L8.75439 9.4021C8.75421 9.45154 8.71403 9.49194 8.66455 9.49194ZM8.66455 12.2253L7.33545 12.2253C7.28585 12.2253 7.24561 12.1851 7.24561 12.1355L7.24561 11.1101C7.24561 11.0605 7.28585 11.0203 7.33545 11.0203L8.66455 11.0203C8.71415 11.0203 8.75439 11.0605 8.75439 11.1101L8.75439 12.1355C8.75439 12.1851 8.71415 12.2253 8.66455 12.2253Z" fill="white" stroke="white" stroke-width="0.16172"/>
</svg>
